<svg width="214" height="91" viewBox="0 0 214 91" fill="none" xmlns="http://www.w3.org/2000/svg">
<path d="M3.36443 1.52062C2.55682 0.767065 1.29125 0.810884 0.537698 1.61849C-0.215857 2.4261 -0.172038 3.69167 0.635569 4.44522L3.36443 1.52062ZM104.395 51.6932L103.723 49.8093L104.395 51.6932ZM104.395 2.98296L105.149 1.13071L104.395 2.98296ZM59.2063 54.1784L57.3898 55.015L59.2063 54.1784ZM214 76.5453L192.57 67.9371L195.83 90.7999L214 76.5453ZM0.635569 4.44522C10.5615 13.7068 28.6604 28.7039 48.1532 40.0386C57.8992 45.7057 68.0627 50.4981 77.7761 53.1807C87.4697 55.8578 96.9068 56.4861 105.066 53.577L103.723 49.8093C96.6424 52.3337 88.124 51.8888 78.8409 49.325C69.5774 46.7667 59.7428 42.1507 50.1639 36.5807C31.0068 25.4412 13.1483 10.6496 3.36443 1.52062L0.635569 4.44522ZM105.066 53.577C112.427 50.9527 117.285 46.7613 120.049 41.7213C122.801 36.7057 123.374 31.0421 122.529 25.6249C121.685 20.2136 119.417 14.9636 116.363 10.6528C113.32 6.35787 109.399 2.8617 105.149 1.13071L103.64 4.8352C106.994 6.20124 110.36 9.09976 113.099 12.9654C115.827 16.8152 117.836 21.4917 118.577 26.2412C119.317 30.9846 118.781 35.7159 116.542 39.7976C114.317 43.8549 110.303 47.4632 103.723 49.8093L105.066 53.577ZM105.149 1.13071C100.527 -0.751721 94.2586 -0.152349 87.9767 1.95679C81.6141 4.09299 74.8803 7.8931 69.129 12.9075C57.6652 22.9023 49.6551 38.221 57.3898 55.015L61.0229 53.3417C54.3358 38.822 60.9878 25.3123 71.7576 15.9224C77.1231 11.2445 83.3989 7.71318 89.2498 5.74877C95.1813 3.75731 100.33 3.48686 103.64 4.8352L105.149 1.13071ZM57.3898 55.015C67.3932 76.7353 91.7818 84.6465 118.314 86.5248C144.972 88.4121 174.668 84.2785 196.47 81.0651L195.887 77.1078C174.038 80.3282 144.757 84.3869 118.597 82.5348C92.3096 80.6739 70.0371 72.9141 61.0229 53.3417L57.3898 55.015Z" fill="url(#paint0_linear)"/>
<defs>
<linearGradient id="paint0_linear" x1="28.9206" y1="-3.47861" x2="195.258" y2="71.7851" gradientUnits="userSpaceOnUse">
<stop stop-color="#05A0A2"/>
<stop offset="1" stop-color="#1881A8"/>
</linearGradient>
</defs>
</svg>
