<?xml version="1.0" encoding="utf-8"?>
<!-- Generator: Adobe Illustrator 26.0.3, SVG Export Plug-In . SVG Version: 6.00 Build 0)  -->
<svg version="1.1" id="Layer_1" xmlns="http://www.w3.org/2000/svg" xmlns:xlink="http://www.w3.org/1999/xlink" x="0px" y="0px"
	 viewBox="0 0 20 20" style="enable-background:new 0 0 20 20;" xml:space="preserve">
<style type="text/css">
	.st0{fill:#6B7075;}
</style>
<path class="st0" d="M6,9c0-0.3,0.1-0.5,0.3-0.7C6.5,8.1,6.7,8,7,8h6c0.3,0,0.5,0.1,0.7,0.3C13.9,8.5,14,8.7,14,9
	c0,0.3-0.1,0.5-0.3,0.7C13.5,9.9,13.3,10,13,10H7c-0.3,0-0.5-0.1-0.7-0.3C6.1,9.5,6,9.3,6,9z M7,12c-0.3,0-0.5,0.1-0.7,0.3
	C6.1,12.5,6,12.7,6,13c0,0.3,0.1,0.5,0.3,0.7C6.5,13.9,6.7,14,7,14h4c0.3,0,0.5-0.1,0.7-0.3c0.2-0.2,0.3-0.4,0.3-0.7
	c0-0.3-0.1-0.5-0.3-0.7C11.5,12.1,11.3,12,11,12H7z M0,10c0-2.2,0.7-4.3,2.1-6.1c1.3-1.7,3.2-3,5.3-3.6c2.1-0.6,4.4-0.4,6.4,0.4
	c2,0.8,3.7,2.3,4.9,4.2s1.6,4.1,1.3,6.3c-0.3,2.2-1.2,4.2-2.8,5.8s-3.5,2.6-5.7,2.9c-2.2,0.3-4.4-0.1-6.3-1.1l-3.9,1.2
	C1.1,20,0.9,20,0.8,20c-0.2,0-0.3-0.1-0.5-0.3c-0.1-0.1-0.2-0.3-0.3-0.5c0-0.2,0-0.4,0-0.5l1.2-3.9C0.4,13.3,0,11.7,0,10z M10,2
	C8.6,2,7.2,2.4,6,3.1C4.7,3.8,3.7,4.8,3,6.1s-1,2.6-1,4.1c0,1.4,0.4,2.8,1.2,4c0.1,0.1,0.1,0.3,0.1,0.4c0,0.1,0,0.3,0,0.4l-0.8,2.5
	L5,16.7c0.1,0,0.3-0.1,0.4,0c0.1,0,0.3,0.1,0.4,0.1c1.1,0.6,2.2,1,3.5,1.1c1.2,0.1,2.5-0.1,3.6-0.5c1.1-0.5,2.2-1.2,3-2.1
	c0.8-0.9,1.4-2,1.8-3.2c0.3-1.2,0.4-2.4,0.2-3.7s-0.7-2.4-1.5-3.3c-0.7-1-1.7-1.8-2.8-2.3C12.5,2.3,11.2,2,10,2z"/>
</svg>
