<svg width="30" height="30" viewBox="0 0 30 30" fill="none" xmlns="http://www.w3.org/2000/svg">
<path d="M10 13.7501C10 13.4186 10.1317 13.1006 10.3661 12.8662C10.6006 12.6318 10.9185 12.5001 11.25 12.5001H18.75C19.0815 12.5001 19.3995 12.6318 19.6339 12.8662C19.8683 13.1006 20 13.4186 20 13.7501C20 14.0816 19.8683 14.3995 19.6339 14.634C19.3995 14.8684 19.0815 15.0001 18.75 15.0001H11.25C10.9185 15.0001 10.6006 14.8684 10.3661 14.634C10.1317 14.3995 10 14.0816 10 13.7501ZM11.25 17.5001C10.9185 17.5001 10.6006 17.6318 10.3661 17.8662C10.1317 18.1006 10 18.4186 10 18.7501C10 19.0816 10.1317 19.3995 10.3661 19.634C10.6006 19.8684 10.9185 20.0001 11.25 20.0001H16.25C16.5815 20.0001 16.8995 19.8684 17.1339 19.634C17.3683 19.3995 17.5 19.0816 17.5 18.7501C17.5 18.4186 17.3683 18.1006 17.1339 17.8662C16.8995 17.6318 16.5815 17.5001 16.25 17.5001H11.25ZM2.50001 15.0001C2.50064 12.2596 3.40187 9.59522 5.06499 7.41707C6.72812 5.23891 9.06097 3.66767 11.7045 2.94517C14.3481 2.22266 17.1558 2.38893 19.6956 3.41839C22.2354 4.44785 24.3665 6.28344 25.7609 8.64266C27.1553 11.0019 27.7358 13.754 27.413 16.4754C27.0902 19.1968 25.8819 21.7367 23.9743 23.7043C22.0666 25.6718 19.5652 26.9578 16.855 27.3645C14.1449 27.7712 11.3762 27.276 8.97501 25.9551L4.11501 27.4351C3.89824 27.5011 3.66759 27.507 3.44775 27.452C3.2279 27.3971 3.02712 27.2834 2.86688 27.1232C2.70665 26.963 2.59298 26.7622 2.53805 26.5423C2.48312 26.3225 2.48898 26.0918 2.55501 25.8751L4.03501 21.0076C3.0249 19.1666 2.49686 17.1 2.50001 15.0001ZM15 5.00007C13.2249 4.99993 11.4817 5.47231 9.94946 6.36871C8.41726 7.26512 7.15129 8.55322 6.28158 10.1007C5.41187 11.6482 4.96977 13.3994 5.00069 15.1742C5.03161 16.9491 5.53443 18.6838 6.45751 20.2001C6.54914 20.3507 6.60788 20.519 6.62985 20.6939C6.65182 20.8689 6.63654 21.0465 6.58501 21.2151L5.62751 24.3626L8.77001 23.4051C8.93916 23.3535 9.11732 23.3385 9.29271 23.3609C9.46811 23.3833 9.63676 23.4427 9.78751 23.5351C11.1055 24.3397 12.5919 24.8282 14.1302 24.9623C15.6685 25.0964 17.217 24.8724 18.6543 24.3079C20.0916 23.7433 21.3786 22.8536 22.4145 21.7085C23.4504 20.5633 24.207 19.1938 24.625 17.7073C25.0431 16.2208 25.1112 14.6577 24.824 13.1404C24.5369 11.6232 23.9022 10.1931 22.9699 8.96217C22.0375 7.73125 20.8328 6.73296 19.45 6.04556C18.0673 5.35816 16.5442 5.00032 15 5.00007Z" fill="#2B3645"/>
</svg>
