<svg width="30" height="30" viewBox="0 0 30 30" fill="none" xmlns="http://www.w3.org/2000/svg">
<path d="M5.625 19.6875V18.75H3.75V19.6875C3.75 21.428 4.4414 23.0972 5.67211 24.3279C6.90282 25.5586 8.57202 26.25 10.3125 26.25H13.125V24.375H10.3125C9.0693 24.375 7.87701 23.8811 6.99794 23.0021C6.11886 22.123 5.625 20.9307 5.625 19.6875ZM22.5 10.3125V11.25H24.375V10.3125C24.375 8.57202 23.6836 6.90282 22.4529 5.67211C21.2222 4.44141 19.553 3.75 17.8125 3.75H15V5.625H17.8125C18.4281 5.625 19.0376 5.74625 19.6063 5.98182C20.175 6.21739 20.6918 6.56266 21.1271 6.99794C21.5623 7.43321 21.9076 7.94996 22.1432 8.51867C22.3788 9.08739 22.5 9.69693 22.5 10.3125ZM10.3125 10.3125H4.6875C3.94158 10.3125 3.22621 10.6088 2.69876 11.1363C2.17132 11.6637 1.875 12.3791 1.875 13.125V15H3.75V13.125C3.75 12.8764 3.84877 12.6379 4.02459 12.4621C4.2004 12.2863 4.43886 12.1875 4.6875 12.1875H10.3125C10.5611 12.1875 10.7996 12.2863 10.9754 12.4621C11.1512 12.6379 11.25 12.8764 11.25 13.125V15H13.125V13.125C13.125 12.3791 12.8287 11.6637 12.3012 11.1363C11.7738 10.6088 11.0584 10.3125 10.3125 10.3125ZM7.5 9.375C8.24168 9.375 8.9667 9.15507 9.58339 8.74301C10.2001 8.33096 10.6807 7.74529 10.9645 7.06006C11.2484 6.37484 11.3226 5.62084 11.1779 4.89341C11.0333 4.16598 10.6761 3.4978 10.1517 2.97335C9.6272 2.4489 8.95902 2.09175 8.23159 1.94706C7.50416 1.80236 6.75016 1.87662 6.06494 2.16045C5.37971 2.44428 4.79404 2.92493 4.38199 3.54161C3.96993 4.1583 3.75 4.88332 3.75 5.625C3.75 6.61956 4.14509 7.57339 4.84835 8.27665C5.55161 8.97991 6.50544 9.375 7.5 9.375ZM7.5 3.75C7.87084 3.75 8.23335 3.85997 8.54169 4.066C8.85004 4.27202 9.09036 4.56486 9.23227 4.90747C9.37419 5.25008 9.41132 5.62708 9.33897 5.9908C9.26663 6.35451 9.08805 6.6886 8.82582 6.95083C8.5636 7.21305 8.22951 7.39163 7.86579 7.46397C7.50208 7.53632 7.12508 7.49919 6.78247 7.35728C6.43986 7.21536 6.14702 6.97504 5.94099 6.6667C5.73497 6.35835 5.625 5.99584 5.625 5.625C5.625 5.12772 5.82254 4.65081 6.17417 4.29918C6.52581 3.94755 7.00272 3.75 7.5 3.75ZM25.3125 23.4375H19.6875C18.9416 23.4375 18.2262 23.7338 17.6988 24.2613C17.1713 24.7887 16.875 25.5041 16.875 26.25V28.125H18.75V26.25C18.75 26.0014 18.8488 25.7629 19.0246 25.5871C19.2004 25.4113 19.4389 25.3125 19.6875 25.3125H25.3125C25.5611 25.3125 25.7996 25.4113 25.9754 25.5871C26.1512 25.7629 26.25 26.0014 26.25 26.25V28.125H28.125V26.25C28.125 25.5041 27.8287 24.7887 27.3012 24.2613C26.7738 23.7338 26.0584 23.4375 25.3125 23.4375ZM18.75 18.75C18.75 19.4917 18.9699 20.2167 19.382 20.8334C19.794 21.4501 20.3797 21.9307 21.0649 22.2146C21.7502 22.4984 22.5042 22.5726 23.2316 22.4279C23.959 22.2833 24.6272 21.9261 25.1516 21.4017C25.6761 20.8772 26.0333 20.209 26.1779 19.4816C26.3226 18.7542 26.2484 18.0002 25.9645 17.3149C25.6807 16.6297 25.2001 16.044 24.5834 15.632C23.9667 15.2199 23.2417 15 22.5 15C21.5054 15 20.5516 15.3951 19.8484 16.0984C19.1451 16.8016 18.75 17.7554 18.75 18.75ZM24.375 18.75C24.375 19.1208 24.265 19.4834 24.059 19.7917C23.853 20.1 23.5601 20.3404 23.2175 20.4823C22.8749 20.6242 22.4979 20.6613 22.1342 20.589C21.7705 20.5166 21.4364 20.3381 21.1742 20.0758C20.912 19.8136 20.7334 19.4795 20.661 19.1158C20.5887 18.7521 20.6258 18.3751 20.7677 18.0325C20.9096 17.6899 21.15 17.397 21.4583 17.191C21.7666 16.985 22.1292 16.875 22.5 16.875C22.9973 16.875 23.4742 17.0725 23.8258 17.4242C24.1775 17.7758 24.375 18.2527 24.375 18.75Z" fill="#2B3645"/>
</svg>
