<?xml version="1.0" encoding="utf-8"?>
<!-- Generator: Adobe Illustrator 26.0.3, SVG Export Plug-In . SVG Version: 6.00 Build 0)  -->
<svg version="1.1" id="Layer_1" xmlns="http://www.w3.org/2000/svg" xmlns:xlink="http://www.w3.org/1999/xlink" x="0px" y="0px"
	 viewBox="0 0 20 20" style="enable-background:new 0 0 20 20;" xml:space="preserve">
<style type="text/css">
	.st0{fill:#6B7075;}
</style>
<path class="st0" d="M2.9,13.6v-0.7H1.4v0.7c0,1.3,0.5,2.6,1.5,3.5c0.9,0.9,2.2,1.5,3.5,1.5h2.1v-1.4H6.4c-0.9,0-1.9-0.4-2.5-1
	S2.9,14.5,2.9,13.6z M15.7,6.4v0.7h1.4V6.4c0-1.3-0.5-2.6-1.5-3.5c-0.9-0.9-2.2-1.5-3.5-1.5H10v1.4h2.1c0.5,0,0.9,0.1,1.4,0.3
	c0.4,0.2,0.8,0.4,1.2,0.8c0.3,0.3,0.6,0.7,0.8,1.2C15.6,5.5,15.7,6,15.7,6.4z M6.4,6.4H2.1C1.6,6.4,1,6.7,0.6,7.1C0.2,7.5,0,8,0,8.6
	V10h1.4V8.6c0-0.2,0.1-0.4,0.2-0.5C1.8,7.9,2,7.9,2.1,7.9h4.3c0.2,0,0.4,0.1,0.5,0.2c0.1,0.1,0.2,0.3,0.2,0.5V10h1.4V8.6
	c0-0.6-0.2-1.1-0.6-1.5S7,6.4,6.4,6.4z M4.3,5.7c0.6,0,1.1-0.2,1.6-0.5C6.3,4.9,6.7,4.5,6.9,4c0.2-0.5,0.3-1.1,0.2-1.7
	C7,1.7,6.7,1.2,6.3,0.8C5.9,0.4,5.4,0.2,4.8,0.1C4.3-0.1,3.7,0,3.2,0.2c-0.5,0.2-1,0.6-1.3,1.1c-0.3,0.5-0.5,1-0.5,1.6
	c0,0.8,0.3,1.5,0.8,2C2.8,5.4,3.5,5.7,4.3,5.7z M4.3,1.4c0.3,0,0.6,0.1,0.8,0.2C5.3,1.8,5.5,2,5.6,2.3c0.1,0.3,0.1,0.5,0.1,0.8
	C5.6,3.4,5.5,3.7,5.3,3.9C5.1,4.1,4.8,4.2,4.6,4.3C4.3,4.3,4,4.3,3.7,4.2S3.3,3.9,3.1,3.7C2.9,3.4,2.9,3.1,2.9,2.9
	c0-0.4,0.2-0.7,0.4-1C3.5,1.6,3.9,1.4,4.3,1.4z M17.9,16.4h-4.3c-0.6,0-1.1,0.2-1.5,0.6c-0.4,0.4-0.6,0.9-0.6,1.5V20h1.4v-1.4
	c0-0.2,0.1-0.4,0.2-0.5c0.1-0.1,0.3-0.2,0.5-0.2h4.3c0.2,0,0.4,0.1,0.5,0.2c0.1,0.1,0.2,0.3,0.2,0.5V20H20v-1.4
	c0-0.6-0.2-1.1-0.6-1.5C19,16.7,18.4,16.4,17.9,16.4z M12.9,12.9c0,0.6,0.2,1.1,0.5,1.6c0.3,0.5,0.8,0.8,1.3,1.1
	c0.5,0.2,1.1,0.3,1.7,0.2c0.6-0.1,1.1-0.4,1.5-0.8c0.4-0.4,0.7-0.9,0.8-1.5c0.1-0.6,0.1-1.1-0.2-1.7c-0.2-0.5-0.6-1-1.1-1.3
	c-0.5-0.3-1-0.5-1.6-0.5c-0.8,0-1.5,0.3-2,0.8C13.2,11.4,12.9,12.1,12.9,12.9z M17.1,12.9c0,0.3-0.1,0.6-0.2,0.8
	c-0.2,0.2-0.4,0.4-0.6,0.5c-0.3,0.1-0.5,0.1-0.8,0.1s-0.5-0.2-0.7-0.4c-0.2-0.2-0.3-0.5-0.4-0.7c-0.1-0.3,0-0.6,0.1-0.8
	c0.1-0.3,0.3-0.5,0.5-0.6c0.2-0.2,0.5-0.2,0.8-0.2c0.4,0,0.7,0.2,1,0.4C17,12.1,17.1,12.5,17.1,12.9z"/>
</svg>
