<svg width="28" height="28" viewBox="0 0 28 28" fill="none" xmlns="http://www.w3.org/2000/svg">
<path d="M7 19.25C7 18.7859 7.18437 18.3408 7.51256 18.0126C7.84075 17.6844 8.28587 17.5 8.75 17.5C9.21413 17.5 9.65925 17.6844 9.98744 18.0126C10.3156 18.3408 10.5 18.7859 10.5 19.25V21C10.5 21.4641 10.3156 21.9092 9.98744 22.2374C9.65925 22.5656 9.21413 22.75 8.75 22.75C8.28587 22.75 7.84075 22.5656 7.51256 22.2374C7.18437 21.9092 7 21.4641 7 21V19.25ZM17.5 12.25C17.5 11.7859 17.6844 11.3408 18.0126 11.0126C18.3408 10.6844 18.7859 10.5 19.25 10.5C19.7141 10.5 20.1592 10.6844 20.4874 11.0126C20.8156 11.3408 21 11.7859 21 12.25V21C21 21.4641 20.8156 21.9092 20.4874 22.2374C20.1592 22.5656 19.7141 22.75 19.25 22.75C18.7859 22.75 18.3408 22.5656 18.0126 22.2374C17.6844 21.9092 17.5 21.4641 17.5 21V12.25ZM12.25 15.75C12.25 15.2859 12.4344 14.8408 12.7626 14.5126C13.0908 14.1844 13.5359 14 14 14C14.4641 14 14.9092 14.1844 15.2374 14.5126C15.5656 14.8408 15.75 15.2859 15.75 15.75V21C15.75 21.4641 15.5656 21.9092 15.2374 22.2374C14.9092 22.5656 14.4641 22.75 14 22.75C13.5359 22.75 13.0908 22.5656 12.7626 22.2374C12.4344 21.9092 12.25 21.4641 12.25 21V15.75Z" fill="#2B3645"/>
<path d="M7 2.625H5.25C4.32174 2.625 3.4315 2.99375 2.77513 3.65013C2.11875 4.3065 1.75 5.19674 1.75 6.125V24.5C1.75 25.4283 2.11875 26.3185 2.77513 26.9749C3.4315 27.6313 4.32174 28 5.25 28H22.75C23.6783 28 24.5685 27.6313 25.2249 26.9749C25.8813 26.3185 26.25 25.4283 26.25 24.5V6.125C26.25 5.19674 25.8813 4.3065 25.2249 3.65013C24.5685 2.99375 23.6783 2.625 22.75 2.625H21V4.375H22.75C23.2141 4.375 23.6592 4.55937 23.9874 4.88756C24.3156 5.21575 24.5 5.66087 24.5 6.125V24.5C24.5 24.9641 24.3156 25.4092 23.9874 25.7374C23.6592 26.0656 23.2141 26.25 22.75 26.25H5.25C4.78587 26.25 4.34075 26.0656 4.01256 25.7374C3.68437 25.4092 3.5 24.9641 3.5 24.5V6.125C3.5 5.66087 3.68437 5.21575 4.01256 4.88756C4.34075 4.55937 4.78587 4.375 5.25 4.375H7V2.625Z" fill="#2B3645"/>
<path d="M16.625 1.75C16.8571 1.75 17.0796 1.84219 17.2437 2.00628C17.4078 2.17038 17.5 2.39294 17.5 2.625V4.375C17.5 4.60706 17.4078 4.82962 17.2437 4.99372C17.0796 5.15781 16.8571 5.25 16.625 5.25H11.375C11.1429 5.25 10.9204 5.15781 10.7563 4.99372C10.5922 4.82962 10.5 4.60706 10.5 4.375V2.625C10.5 2.39294 10.5922 2.17038 10.7563 2.00628C10.9204 1.84219 11.1429 1.75 11.375 1.75H16.625ZM11.375 0C10.6788 0 10.0111 0.276562 9.51884 0.768845C9.02656 1.26113 8.75 1.92881 8.75 2.625V4.375C8.75 5.07119 9.02656 5.73887 9.51884 6.23116C10.0111 6.72344 10.6788 7 11.375 7H16.625C17.3212 7 17.9889 6.72344 18.4812 6.23116C18.9734 5.73887 19.25 5.07119 19.25 4.375V2.625C19.25 1.92881 18.9734 1.26113 18.4812 0.768845C17.9889 0.276562 17.3212 0 16.625 0L11.375 0Z" fill="#2B3645"/>
</svg>
