<?xml version="1.0" encoding="utf-8"?>
<!-- Generator: Adobe Illustrator 26.0.3, SVG Export Plug-In . SVG Version: 6.00 Build 0)  -->
<svg version="1.1" id="Layer_1" xmlns="http://www.w3.org/2000/svg" xmlns:xlink="http://www.w3.org/1999/xlink" x="0px" y="0px"
	 viewBox="0 0 20 20" style="enable-background:new 0 0 20 20;" xml:space="preserve">
<style type="text/css">
	.st0{fill:#6B7075;}
</style>
<path class="st0" d="M5,13.8c0-0.3,0.1-0.6,0.4-0.9c0.2-0.2,0.6-0.4,0.9-0.4s0.6,0.1,0.9,0.4c0.2,0.2,0.4,0.6,0.4,0.9V15
	c0,0.3-0.1,0.6-0.4,0.9c-0.2,0.2-0.6,0.4-0.9,0.4s-0.6-0.1-0.9-0.4C5.1,15.6,5,15.3,5,15V13.8z M12.5,8.8c0-0.3,0.1-0.6,0.4-0.9
	c0.2-0.2,0.6-0.4,0.9-0.4s0.6,0.1,0.9,0.4C14.9,8.1,15,8.4,15,8.8V15c0,0.3-0.1,0.6-0.4,0.9c-0.2,0.2-0.6,0.4-0.9,0.4
	s-0.6-0.1-0.9-0.4c-0.2-0.2-0.4-0.6-0.4-0.9V8.8z M8.8,11.2c0-0.3,0.1-0.6,0.4-0.9C9.4,10.1,9.7,10,10,10s0.6,0.1,0.9,0.4
	c0.2,0.2,0.4,0.6,0.4,0.9V15c0,0.3-0.1,0.6-0.4,0.9c-0.2,0.2-0.6,0.4-0.9,0.4s-0.6-0.1-0.9-0.4c-0.2-0.2-0.4-0.6-0.4-0.9V11.2z"/>
<path class="st0" d="M5,1.9H3.8C3.1,1.9,2.5,2.1,2,2.6S1.2,3.7,1.2,4.4v13.1c0,0.7,0.3,1.3,0.7,1.8C2.5,19.7,3.1,20,3.8,20h12.5
	c0.7,0,1.3-0.3,1.8-0.7c0.5-0.5,0.7-1.1,0.7-1.8V4.4c0-0.7-0.3-1.3-0.7-1.8c-0.5-0.5-1.1-0.7-1.8-0.7H15v1.2h1.2
	c0.3,0,0.6,0.1,0.9,0.4c0.2,0.2,0.4,0.6,0.4,0.9v13.1c0,0.3-0.1,0.6-0.4,0.9c-0.2,0.2-0.6,0.4-0.9,0.4H3.8c-0.3,0-0.6-0.1-0.9-0.4
	c-0.2-0.2-0.4-0.6-0.4-0.9V4.4c0-0.3,0.1-0.6,0.4-0.9c0.2-0.2,0.6-0.4,0.9-0.4H5V1.9z"/>
<path class="st0" d="M11.9,1.2c0.2,0,0.3,0.1,0.4,0.2c0.1,0.1,0.2,0.3,0.2,0.4v1.2c0,0.2-0.1,0.3-0.2,0.4c-0.1,0.1-0.3,0.2-0.4,0.2
	H8.1C8,3.8,7.8,3.7,7.7,3.6C7.6,3.4,7.5,3.3,7.5,3.1V1.9c0-0.2,0.1-0.3,0.2-0.4C7.8,1.3,8,1.2,8.1,1.2H11.9z M8.1,0
	c-0.5,0-1,0.2-1.3,0.5C6.4,0.9,6.2,1.4,6.2,1.9v1.2c0,0.5,0.2,1,0.5,1.3C7.2,4.8,7.6,5,8.1,5h3.8c0.5,0,1-0.2,1.3-0.5
	c0.4-0.4,0.5-0.8,0.5-1.3V1.9c0-0.5-0.2-1-0.5-1.3C12.8,0.2,12.4,0,11.9,0H8.1z"/>
</svg>
