<svg width="34" height="34" viewBox="0 0 34 34" fill="none" xmlns="http://www.w3.org/2000/svg">
<path d="M7.44795 15.9375C7.44795 15.6557 7.55989 15.3855 7.75915 15.1862C7.95841 14.9869 8.22866 14.875 8.51045 14.875H10.6355V12.75C10.6355 12.4682 10.7474 12.198 10.9467 11.9987C11.1459 11.7994 11.4162 11.6875 11.698 11.6875C11.9797 11.6875 12.25 11.7994 12.4493 11.9987C12.6485 12.198 12.7605 12.4682 12.7605 12.75V14.875H14.8855C15.1672 14.875 15.4375 14.9869 15.6368 15.1862C15.836 15.3855 15.948 15.6557 15.948 15.9375C15.948 16.2193 15.836 16.4895 15.6368 16.6888C15.4375 16.8881 15.1672 17 14.8855 17H12.7605V19.125C12.7605 19.4068 12.6485 19.677 12.4493 19.8763C12.25 20.0756 11.9797 20.1875 11.698 20.1875C11.4162 20.1875 11.1459 20.0756 10.9467 19.8763C10.7474 19.677 10.6355 19.4068 10.6355 19.125V17H8.51045C8.22866 17 7.95841 16.8881 7.75915 16.6888C7.55989 16.4895 7.44795 16.2193 7.44795 15.9375ZM23.3748 19.125C23.3748 19.6886 23.1509 20.2291 22.7524 20.6276C22.3539 21.0261 21.8134 21.25 21.2498 21.25C20.6862 21.25 20.1457 21.0261 19.7472 20.6276C19.3487 20.2291 19.1248 19.6886 19.1248 19.125C19.1248 18.5614 19.3487 18.0209 19.7472 17.6224C20.1457 17.2239 20.6862 17 21.2498 17C21.8134 17 22.3539 17.2239 22.7524 17.6224C23.1509 18.0209 23.3748 18.5614 23.3748 19.125ZM23.3748 14.875C23.9384 14.875 24.4789 14.6511 24.8774 14.2526C25.2759 13.8541 25.4998 13.3136 25.4998 12.75C25.4998 12.1864 25.2759 11.6459 24.8774 11.2474C24.4789 10.8489 23.9384 10.625 23.3748 10.625C22.8112 10.625 22.2707 10.8489 21.8722 11.2474C21.4737 11.6459 21.2498 12.1864 21.2498 12.75C21.2498 13.3136 21.4737 13.8541 21.8722 14.2526C22.2707 14.6511 22.8112 14.875 23.3748 14.875ZM2.12695 15.9375C2.12695 13.4014 3.13443 10.9691 4.92774 9.17579C6.72106 7.38247 9.15332 6.375 11.6895 6.375H22.3315C24.8676 6.375 27.2998 7.38247 29.0932 9.17579C30.8865 10.9691 31.894 13.4014 31.894 15.9375C31.894 18.4736 30.8865 20.9059 29.0932 22.6992C27.2998 24.4925 24.8676 25.5 22.3315 25.5H11.6895C9.15332 25.5 6.72106 24.4925 4.92774 22.6992C3.13443 20.9059 2.12695 18.4736 2.12695 15.9375ZM11.6895 8.5C9.71691 8.5 7.82515 9.28359 6.43035 10.6784C5.03555 12.0732 4.25195 13.965 4.25195 15.9375C4.25195 17.91 5.03555 19.8018 6.43035 21.1966C7.82515 22.5914 9.71691 23.375 11.6895 23.375H22.3315C24.304 23.375 26.1958 22.5914 27.5906 21.1966C28.9854 19.8018 29.769 17.91 29.769 15.9375C29.769 13.965 28.9854 12.0732 27.5906 10.6784C26.1958 9.28359 24.304 8.5 22.3315 8.5H11.6895Z" fill="#2B3645"/>
</svg>
