<?xml version="1.0" encoding="utf-8"?>
<!-- Generator: Adobe Illustrator 26.0.3, SVG Export Plug-In . SVG Version: 6.00 Build 0)  -->
<svg version="1.1" id="Layer_1" xmlns="http://www.w3.org/2000/svg" xmlns:xlink="http://www.w3.org/1999/xlink" x="0px" y="0px"
	 viewBox="0 0 20 20" style="enable-background:new 0 0 20 20;" xml:space="preserve">
<style type="text/css">
	.st0{fill:#6B7075;}
</style>
<path class="st0" d="M3.6,10c0-0.2,0.1-0.4,0.2-0.5c0.1-0.1,0.3-0.2,0.5-0.2h1.4V7.8c0-0.2,0.1-0.4,0.2-0.5C6.1,7.1,6.2,7,6.4,7
	s0.4,0.1,0.5,0.2c0.1,0.1,0.2,0.3,0.2,0.5v1.5h1.4c0.2,0,0.4,0.1,0.5,0.2C9.2,9.6,9.3,9.8,9.3,10c0,0.2-0.1,0.4-0.2,0.5
	c-0.1,0.1-0.3,0.2-0.5,0.2H7.1v1.5c0,0.2-0.1,0.4-0.2,0.5C6.8,12.9,6.6,13,6.4,13s-0.4-0.1-0.5-0.2c-0.1-0.1-0.2-0.3-0.2-0.5v-1.5
	H4.3c-0.2,0-0.4-0.1-0.5-0.2C3.7,10.4,3.6,10.2,3.6,10z M14.3,12.2c0,0.4-0.2,0.8-0.4,1c-0.3,0.3-0.6,0.4-1,0.4s-0.7-0.2-1-0.4
	c-0.3-0.3-0.4-0.7-0.4-1c0-0.4,0.2-0.8,0.4-1c0.3-0.3,0.6-0.4,1-0.4s0.7,0.2,1,0.4C14.1,11.5,14.3,11.8,14.3,12.2z M14.3,9.3
	c0.4,0,0.7-0.2,1-0.4c0.3-0.3,0.4-0.7,0.4-1c0-0.4-0.2-0.8-0.4-1c-0.3-0.3-0.6-0.4-1-0.4c-0.4,0-0.7,0.2-1,0.4
	c-0.3,0.3-0.4,0.7-0.4,1c0,0.4,0.2,0.8,0.4,1C13.5,9.1,13.9,9.3,14.3,9.3z M0,10c0-1.8,0.7-3.5,1.9-4.7c1.2-1.2,2.8-2,4.5-2h7.1
	c1.7,0,3.3,0.7,4.5,2C19.3,6.5,20,8.2,20,10c0,1.8-0.7,3.5-1.9,4.7c-1.2,1.2-2.8,2-4.5,2H6.4c-1.7,0-3.3-0.7-4.5-2
	C0.7,13.5,0,11.8,0,10z M6.4,4.8c-1.3,0-2.6,0.5-3.5,1.5C2,7.3,1.4,8.6,1.4,10c0,1.4,0.5,2.7,1.5,3.7c0.9,1,2.2,1.5,3.5,1.5h7.1
	c1.3,0,2.6-0.5,3.5-1.5s1.5-2.3,1.5-3.7c0-1.4-0.5-2.7-1.5-3.7s-2.2-1.5-3.5-1.5H6.4z"/>
</svg>
