<svg width="1440" height="733" viewBox="0 0 1440 733" fill="none" xmlns="http://www.w3.org/2000/svg">
<path d="M339.5 588.883C275.1 724.883 77 739.55 -14 729.883L5 -1385H1453V-95.9982L1448.64 -94.2217C1348.55 -53.4014 1213.86 1.53241 1163 80.3828C1098.5 180.383 772 268.883 678.5 283.383C531.567 306.169 420 418.883 339.5 588.883Z" fill="url(#paint0_linear)"/>
<path d="M452.364 437.521C451.557 436.767 450.291 436.811 449.538 437.618C448.784 438.426 448.828 439.692 449.636 440.445L452.364 437.521ZM553.395 487.693L552.723 485.809L553.395 487.693ZM553.395 438.983L554.149 437.131L553.395 438.983ZM508.206 490.178L506.39 491.015L508.206 490.178ZM663 512.545L641.57 503.937L644.83 526.8L663 512.545ZM449.636 440.445C459.561 449.707 477.66 464.704 497.153 476.039C506.899 481.706 517.063 486.498 526.776 489.181C536.47 491.858 545.907 492.486 554.066 489.577L552.723 485.809C545.642 488.334 537.124 487.889 527.841 485.325C518.577 482.767 508.743 478.151 499.164 472.581C480.007 461.441 462.148 446.65 452.364 437.521L449.636 440.445ZM554.066 489.577C561.427 486.953 566.285 482.761 569.049 477.721C571.801 472.706 572.374 467.042 571.529 461.625C570.685 456.214 568.417 450.964 565.363 446.653C562.32 442.358 558.399 438.862 554.149 437.131L552.64 440.835C555.994 442.201 559.36 445.1 562.099 448.965C564.827 452.815 566.836 457.492 567.577 462.241C568.317 466.985 567.781 471.716 565.542 475.798C563.317 479.855 559.303 483.463 552.723 485.809L554.066 489.577ZM554.149 437.131C549.527 435.248 543.259 435.848 536.977 437.957C530.614 440.093 523.88 443.893 518.129 448.907C506.665 458.902 498.655 474.221 506.39 491.015L510.023 489.342C503.336 474.822 509.988 461.312 520.758 451.922C526.123 447.244 532.399 443.713 538.25 441.749C544.181 439.757 549.33 439.487 552.64 440.835L554.149 437.131ZM506.39 491.015C516.393 512.735 540.782 520.646 567.314 522.525C593.972 524.412 623.668 520.279 645.47 517.065L644.887 513.108C623.038 516.328 593.757 520.387 567.597 518.535C541.31 516.674 519.037 508.914 510.023 489.342L506.39 491.015Z" fill="url(#paint1_linear)"/>
<defs>
<linearGradient id="paint0_linear" x1="677" y1="595.002" x2="727.25" y2="-1385" gradientUnits="userSpaceOnUse">
<stop stop-color="#C0D5FD" stop-opacity="0.6"/>
<stop offset="1" stop-color="white" stop-opacity="0"/>
</linearGradient>
<linearGradient id="paint1_linear" x1="477.921" y1="432.521" x2="644.258" y2="507.785" gradientUnits="userSpaceOnUse">
<stop stop-color="#05A0A2"/>
<stop offset="1" stop-color="#1881A8"/>
</linearGradient>
</defs>
</svg>
