<?xml version="1.0" encoding="utf-8"?>
<!-- Generator: Adobe Illustrator 26.0.3, SVG Export Plug-In . SVG Version: 6.00 Build 0)  -->
<svg version="1.1" id="Layer_1" xmlns="http://www.w3.org/2000/svg" xmlns:xlink="http://www.w3.org/1999/xlink" x="0px" y="0px"
	 viewBox="0 0 20 20" style="enable-background:new 0 0 20 20;" xml:space="preserve">
<style type="text/css">
	.st0{fill-rule:evenodd;clip-rule:evenodd;fill:#6B7075;}
</style>
<path class="st0" d="M2,17.2V8.5h1.3v8.7c0,0.2,0.1,0.3,0.2,0.5c0.1,0.1,0.3,0.2,0.5,0.2h12c0.2,0,0.3-0.1,0.5-0.2
	c0.1-0.1,0.2-0.3,0.2-0.5V8.5H18v8.7c0,0.5-0.2,1-0.6,1.4C17,19,16.5,19.2,16,19.2H4c-0.5,0-1-0.2-1.4-0.6C2.2,18.2,2,17.7,2,17.2
	L2,17.2z M16.7,2.5v4.7L14,4.5v-2c0-0.2,0.1-0.3,0.2-0.5c0.1-0.1,0.3-0.2,0.5-0.2H16c0.2,0,0.3,0.1,0.5,0.2
	C16.6,2.2,16.7,2.4,16.7,2.5z"/>
<path class="st0" d="M9.1,1.2C9.3,0.9,9.6,0.8,10,0.8s0.7,0.1,0.9,0.4l8.9,8.9c0.1,0.1,0.2,0.3,0.2,0.5c0,0.2-0.1,0.3-0.2,0.5
	c-0.1,0.1-0.3,0.2-0.5,0.2c-0.2,0-0.3-0.1-0.5-0.2L10,2.1L1.1,11c-0.1,0.1-0.3,0.2-0.5,0.2c-0.2,0-0.3-0.1-0.5-0.2
	C0.1,10.9,0,10.7,0,10.5c0-0.2,0.1-0.3,0.2-0.5L9.1,1.2z"/>
</svg>
