<svg width="30" height="30" viewBox="0 0 30 30" fill="none" xmlns="http://www.w3.org/2000/svg">
<path fill-rule="evenodd" clip-rule="evenodd" d="M0 9.375C0 8.38044 0.395088 7.42661 1.09835 6.72335C1.80161 6.02009 2.75544 5.625 3.75 5.625H17.8125C18.722 5.62489 19.6006 5.95536 20.2846 6.55486C20.9687 7.15437 21.4115 7.98204 21.5306 8.88375L27.3619 6.2925C27.6473 6.16532 27.96 6.11149 28.2715 6.13591C28.583 6.16033 28.8835 6.26221 29.1456 6.4323C29.4078 6.6024 29.6232 6.83531 29.7724 7.10986C29.9216 7.38441 29.9999 7.6919 30 8.00437V21.9956C29.9997 22.3079 29.9215 22.6151 29.7724 22.8894C29.6233 23.1637 29.408 23.3965 29.1461 23.5665C28.8843 23.7366 28.5841 23.8385 28.2728 23.8631C27.9616 23.8878 27.6491 23.8343 27.3638 23.7075L21.5306 21.1163C21.4115 22.018 20.9687 22.8456 20.2846 23.4451C19.6006 24.0446 18.722 24.3751 17.8125 24.375H3.75C2.75544 24.375 1.80161 23.9799 1.09835 23.2766C0.395088 22.5734 0 21.6196 0 20.625V9.375ZM21.5625 19.0781L28.125 21.9956V8.00437L21.5625 10.9219V19.0781ZM3.75 7.5C3.25272 7.5 2.77581 7.69754 2.42417 8.04918C2.07254 8.40081 1.875 8.87772 1.875 9.375V20.625C1.875 21.1223 2.07254 21.5992 2.42417 21.9508C2.77581 22.3025 3.25272 22.5 3.75 22.5H17.8125C18.3098 22.5 18.7867 22.3025 19.1383 21.9508C19.49 21.5992 19.6875 21.1223 19.6875 20.625V9.375C19.6875 8.87772 19.49 8.40081 19.1383 8.04918C18.7867 7.69754 18.3098 7.5 17.8125 7.5H3.75Z" fill="#2B3645"/>
</svg>
