<?xml version="1.0" encoding="utf-8"?>
<!-- Generator: Adobe Illustrator 26.0.3, SVG Export Plug-In . SVG Version: 6.00 Build 0)  -->
<svg version="1.1" id="Layer_1" xmlns="http://www.w3.org/2000/svg" xmlns:xlink="http://www.w3.org/1999/xlink" x="0px" y="0px"
	 viewBox="0 0 20 20" style="enable-background:new 0 0 20 20;" xml:space="preserve">
<style type="text/css">
	.st0{fill-rule:evenodd;clip-rule:evenodd;fill:#6B7075;}
</style>
<path class="st0" d="M0,6c0-0.7,0.3-1.3,0.7-1.8c0.5-0.5,1.1-0.7,1.8-0.7h9.4c0.6,0,1.2,0.2,1.6,0.6c0.5,0.4,0.8,1,0.8,1.6l3.9-1.8
	c0.2-0.1,0.4-0.1,0.6-0.1c0.2,0,0.4,0.1,0.6,0.2c0.2,0.1,0.3,0.3,0.4,0.5C19.9,4.6,20,4.8,20,5v9.5c0,0.2-0.1,0.4-0.2,0.6
	c-0.1,0.2-0.2,0.3-0.4,0.5c-0.2,0.1-0.4,0.2-0.6,0.2c-0.2,0-0.4,0-0.6-0.1l-3.9-1.8c-0.1,0.6-0.4,1.2-0.8,1.6
	c-0.5,0.4-1,0.6-1.6,0.6H2.5c-0.7,0-1.3-0.3-1.8-0.7C0.3,14.9,0,14.3,0,13.6V6z M14.4,12.6l4.4,2V5l-4.4,2V12.6z M2.5,4.7
	C2.2,4.7,1.9,4.8,1.6,5S1.2,5.6,1.2,6v7.7c0,0.3,0.1,0.7,0.4,0.9c0.2,0.2,0.6,0.4,0.9,0.4h9.4c0.3,0,0.6-0.1,0.9-0.4
	c0.2-0.2,0.4-0.6,0.4-0.9V9.8V6c0-0.3-0.1-0.7-0.4-0.9c-0.2-0.2-0.6-0.4-0.9-0.4H2.5z"/>
</svg>
