<?xml version="1.0" encoding="utf-8"?>
<!-- Generator: Adobe Illustrator 26.0.3, SVG Export Plug-In . SVG Version: 6.00 Build 0)  -->
<svg version="1.1" id="Layer_1" xmlns="http://www.w3.org/2000/svg" xmlns:xlink="http://www.w3.org/1999/xlink" x="0px" y="0px"
	 viewBox="0 0 20 20" style="enable-background:new 0 0 20 20;" xml:space="preserve">
<style type="text/css">
	.st0{fill-rule:evenodd;clip-rule:evenodd;fill:#6B7075;}
</style>
<path class="st0" d="M6.2,1.9c-0.5,0-0.9,0.4-0.9,0.9v14.5c0,0.5,0.4,0.9,0.9,0.9h7.6c0.5,0,0.9-0.4,0.9-0.9V2.7
	c0-0.5-0.4-0.9-0.9-0.9H6.2z M3.3,2.7C3.3,1.3,4.6,0,6.2,0h7.6c1.6,0,2.9,1.3,2.9,2.7v14.5c0,1.5-1.3,2.7-2.9,2.7H6.2
	c-1.6,0-2.9-1.3-2.9-2.7V2.7z M9,16.6c0-0.5,0.4-0.9,1-0.9h0c0.6,0,1,0.4,1,0.9s-0.4,0.9-1,0.9h0C9.4,17.5,9,17.1,9,16.6z"/>
</svg>
