<svg width="30" height="30" viewBox="0 0 30 30" fill="none" xmlns="http://www.w3.org/2000/svg">
<path d="M14.9163 14.4166C17.1663 14.4166 18.9163 12.5833 18.9163 10.3333C18.9163 8.08325 17.083 6.33325 14.833 6.33325C12.583 6.33325 10.833 8.16659 10.833 10.3333C10.833 12.5833 12.6663 14.4166 14.9163 14.4166ZM14.833 7.99992C14.9163 7.99992 14.9163 7.99992 14.833 7.99992C16.1663 7.99992 17.2497 9.08325 17.2497 10.4166C17.2497 11.7499 16.1663 12.7499 14.833 12.7499C13.4997 12.7499 12.4997 11.6666 12.4997 10.4166C12.4997 9.08325 13.583 7.99992 14.833 7.99992Z" fill="#2B3645"/>
<path d="M27.25 13.9168C25.6667 12.5001 23.5833 11.7501 21.4167 11.8334H20.75C20.5833 12.5001 20.3333 13.0834 20 13.5834C20.5 13.5001 20.9167 13.5001 21.4167 13.5001C23 13.4168 24.5833 13.9168 25.8333 14.8334V20.8334H27.5V14.1668L27.25 13.9168Z" fill="#2B3645"/>
<path d="M19.4997 6.49992C19.9163 5.49992 21.083 4.99992 22.1663 5.41658C23.1663 5.83325 23.6663 6.99992 23.2497 8.08325C22.9163 8.83325 22.1663 9.33325 21.4163 9.33325C21.2497 9.33325 20.9997 9.33325 20.833 9.24992C20.9163 9.66658 20.9163 10.0833 20.9163 10.4166V10.9166C21.083 10.9166 21.2497 10.9999 21.4163 10.9999C23.4997 10.9999 25.1663 9.33325 25.1663 7.33325C25.1663 5.24992 23.4997 3.58325 21.4997 3.58325C20.1663 3.58325 18.9997 4.24992 18.333 5.41658C18.7497 5.66658 19.1663 5.99992 19.4997 6.49992Z" fill="#2B3645"/>
<path d="M10 13.6667C9.66667 13.1667 9.41667 12.5833 9.25 11.9167H8.58333C6.41667 11.8333 4.33333 12.5833 2.75 13.9167L2.5 14.1667V20.8333H4.16667V14.8333C5.5 13.9167 7 13.4167 8.58333 13.5C9.08333 13.5 9.58333 13.5833 10 13.6667Z" fill="#2B3645"/>
<path d="M8.58347 10.9166C8.75013 10.9166 8.9168 10.9166 9.08347 10.8333V10.3333C9.08347 9.91664 9.08347 9.49997 9.1668 9.16664C9.00013 9.24997 8.75013 9.24997 8.58347 9.24997C7.50013 9.24997 6.58347 8.3333 6.58347 7.24997C6.58347 6.16664 7.50013 5.24997 8.58347 5.24997C9.4168 5.24997 10.1668 5.74997 10.5001 6.49997C10.8335 6.0833 11.3335 5.66664 11.7501 5.3333C10.6668 3.5833 8.4168 2.99997 6.6668 4.0833C4.9168 5.16664 4.33347 7.41664 5.4168 9.16664C6.08347 10.25 7.25013 10.9166 8.58347 10.9166Z" fill="#2B3645"/>
<path d="M21.7497 18.9167L21.583 18.6667C19.9163 16.8333 17.583 15.75 15.083 15.8333C12.583 15.75 10.1663 16.8333 8.49967 18.6667L8.33301 18.9167V25.25C8.33301 26 8.91634 26.6667 9.74967 26.6667H20.4163C21.1663 26.6667 21.833 26 21.833 25.25V18.9167H21.7497ZM20.083 25H9.99967V19.5C11.333 18.1667 13.1663 17.5 15.083 17.5C16.9163 17.4167 18.7497 18.1667 20.083 19.5V25Z" fill="#2B3645"/>
</svg>
