<?xml version="1.0" encoding="utf-8"?>
<!-- Generator: Adobe Illustrator 26.0.3, SVG Export Plug-In . SVG Version: 6.00 Build 0)  -->
<svg version="1.1" id="Layer_1" xmlns="http://www.w3.org/2000/svg" xmlns:xlink="http://www.w3.org/1999/xlink" x="0px" y="0px"
	 viewBox="0 0 20 20" style="enable-background:new 0 0 20 20;" xml:space="preserve">
<style type="text/css">
	.st0{fill:#6B7075;}
</style>
<path class="st0" d="M9.9,9.5c1.8,0,3.2-1.5,3.2-3.3S11.7,3,9.9,3C8.1,3,6.7,4.5,6.7,6.2C6.7,8,8.1,9.5,9.9,9.5z M9.9,4.3
	C9.9,4.3,9.9,4.3,9.9,4.3c1.1,0,1.9,0.9,1.9,1.9c0,1.1-0.9,1.9-1.9,1.9C8.8,8.1,8,7.3,8,6.3C8,5.2,8.9,4.3,9.9,4.3z"/>
<path class="st0" d="M19.8,9.1c-1.3-1.1-2.9-1.7-4.7-1.7h-0.5c-0.1,0.5-0.3,1-0.6,1.4c0.4-0.1,0.7-0.1,1.1-0.1
	c1.3-0.1,2.5,0.3,3.5,1.1v4.8H20V9.3L19.8,9.1z"/>
<path class="st0" d="M13.6,3.1c0.3-0.8,1.3-1.2,2.1-0.9c0.8,0.3,1.2,1.3,0.9,2.1c-0.3,0.6-0.9,1-1.5,1c-0.1,0-0.3,0-0.5-0.1
	c0.1,0.3,0.1,0.7,0.1,0.9v0.4c0.1,0,0.3,0.1,0.4,0.1c1.7,0,3-1.3,3-2.9c0-1.7-1.3-3-2.9-3c-1.1,0-2,0.5-2.5,1.5
	C13,2.5,13.3,2.7,13.6,3.1z"/>
<path class="st0" d="M6,8.9C5.7,8.5,5.5,8,5.4,7.5H4.9C3.1,7.4,1.5,8,0.2,9.1L0,9.3v5.3h1.3V9.8c1.1-0.7,2.3-1.1,3.5-1.1
	C5.3,8.7,5.7,8.8,6,8.9z"/>
<path class="st0" d="M4.9,6.7c0.1,0,0.3,0,0.4-0.1V6.2c0-0.3,0-0.7,0.1-0.9C5.2,5.3,5,5.3,4.9,5.3C4,5.3,3.3,4.6,3.3,3.7
	c0-0.9,0.7-1.6,1.6-1.6c0.7,0,1.3,0.4,1.5,1c0.3-0.3,0.7-0.7,1-0.9c-0.9-1.4-2.7-1.9-4.1-1C2,2.1,1.5,3.9,2.4,5.3
	C2.9,6.1,3.8,6.7,4.9,6.7z"/>
<path class="st0" d="M15.4,13l-0.1-0.2c-1.3-1.5-3.2-2.3-5.2-2.3c-2-0.1-3.9,0.8-5.3,2.3L4.7,13v5.1c0,0.6,0.5,1.1,1.1,1.1h8.5
	c0.6,0,1.1-0.5,1.1-1.1L15.4,13L15.4,13z M14.1,17.9H6v-4.4c1.1-1.1,2.5-1.6,4.1-1.6c1.5-0.1,2.9,0.5,4,1.6V17.9z"/>
</svg>
