<svg width="32" height="32" viewBox="0 0 32 32" fill="none" xmlns="http://www.w3.org/2000/svg">
<path d="M27.0906 5.30937L16.4719 1.69062C16.3437 1.64687 16.1719 1.625 16 1.625C15.8281 1.625 15.6562 1.64687 15.5281 1.69062L4.90938 5.30937C4.65 5.39687 4.4375 5.69688 4.4375 5.97188V21.0469C4.4375 21.3219 4.61563 21.6844 4.83125 21.8563L15.6031 30.25C15.7125 30.3344 15.8531 30.3781 15.9969 30.3781C16.1406 30.3781 16.2844 30.3344 16.3906 30.25L27.1625 21.8563C27.3781 21.6875 27.5562 21.325 27.5562 21.0469V5.97188C27.5625 5.69688 27.35 5.4 27.0906 5.30937ZM25.3125 20.4469L16 27.7031L6.6875 20.4469V7.08437L16 3.90937L25.3125 7.08437V20.4469ZM12.5906 16.525L10.1687 18.9469C10.1222 18.9939 10.0961 19.0573 10.0961 19.1234C10.0961 19.1896 10.1222 19.253 10.1687 19.3L11.2312 20.3625C11.3281 20.4594 11.4875 20.4594 11.5844 20.3625L14.0063 17.9406C15.7469 19.0375 18.0719 18.8281 19.5875 17.3125C21.3469 15.5531 21.3469 12.7031 19.5875 10.9438C17.8281 9.18438 14.9781 9.18438 13.2188 10.9438C11.7031 12.4594 11.4937 14.7875 12.5906 16.525ZM14.6344 12.3594C15.6125 11.3813 17.1969 11.3813 18.1719 12.3594C19.15 13.3375 19.15 14.9219 18.1719 15.8969C17.1938 16.875 15.6094 16.875 14.6344 15.8969C13.6594 14.9188 13.6562 13.3375 14.6344 12.3594Z" fill="#2B3645"/>
</svg>
