<?xml version="1.0" encoding="utf-8"?>
<!-- Generator: Adobe Illustrator 26.0.3, SVG Export Plug-In . SVG Version: 6.00 Build 0)  -->
<svg version="1.1" id="Layer_1" xmlns="http://www.w3.org/2000/svg" xmlns:xlink="http://www.w3.org/1999/xlink" x="0px" y="0px"
	 viewBox="0 0 20 20" style="enable-background:new 0 0 20 20;" xml:space="preserve">
<style type="text/css">
	.st0{fill:#6B7075;}
</style>
<path class="st0" d="M17.7,2.6L10.3,0c-0.1,0-0.2,0-0.3,0S9.8,0,9.7,0L2.3,2.6C2.1,2.6,2,2.8,2,3v10.5c0,0.2,0.1,0.4,0.3,0.6
	l7.5,5.8C9.8,20,9.9,20,10,20c0.1,0,0.2,0,0.3-0.1l7.5-5.8c0.2-0.1,0.3-0.4,0.3-0.6V3C18,2.8,17.9,2.6,17.7,2.6L17.7,2.6z
	 M16.5,13.1l-6.5,5l-6.5-5V3.8L10,1.6l6.5,2.2V13.1z M7.6,10.4L5.9,12c0,0-0.1,0.1-0.1,0.1c0,0,0,0.1,0.1,0.1L6.7,13
	c0.1,0.1,0.2,0.1,0.2,0l1.7-1.7c1.2,0.8,2.8,0.6,3.9-0.4c1.2-1.2,1.2-3.2,0-4.4c-1.2-1.2-3.2-1.2-4.4,0C7,7.5,6.9,9.2,7.6,10.4
	L7.6,10.4z M9.1,7.5c0.7-0.7,1.8-0.7,2.5,0c0.7,0.7,0.7,1.8,0,2.5c-0.7,0.7-1.8,0.7-2.5,0C8.4,9.2,8.4,8.1,9.1,7.5L9.1,7.5z"/>
</svg>
