<svg width="650" height="687" viewBox="0 0 650 687" fill="none" xmlns="http://www.w3.org/2000/svg">
<g opacity="0.65">
<path d="M648.266 140.632C648.113 140.583 647.953 140.564 647.794 140.576C647.636 140.587 647.482 140.63 647.342 140.701C647.202 140.772 647.079 140.87 646.979 140.989C646.879 141.109 646.805 141.247 646.761 141.396C646.75 141.448 646.752 141.502 646.766 141.554L605.612 143.082C605.542 142.48 605.349 141.896 605.045 141.363C604.741 140.83 604.332 140.36 603.843 139.981C603.354 139.602 602.795 139.322 602.199 139.158C601.604 138.994 600.984 138.949 600.377 139.026L595.936 118.14C596.688 117.958 597.375 117.589 597.932 117.069C598.488 116.548 598.897 115.892 599.117 115.164C599.43 114.127 599.344 113.004 598.876 112.003C598.407 111.003 597.588 110.194 596.573 109.729C595.557 109.264 594.414 109.174 593.358 109.476C592.302 109.778 591.406 110.452 590.837 111.371L590.102 110.976L590.253 110.633C590.45 109.895 590.356 109.102 589.991 108.412C589.625 107.722 589.014 107.183 588.277 106.903C587.541 106.622 586.732 106.62 586.009 106.896C585.287 107.172 584.704 107.707 584.374 108.395L562.5 100.493C562.791 99.4701 562.657 98.3637 562.128 97.4128C561.6 96.462 560.718 95.7428 559.672 95.4103C559.239 95.2606 558.781 95.1979 558.328 95.2259L555.978 70.7318C556.987 70.6094 557.914 70.1522 558.607 69.4352C559.3 68.7182 559.717 67.7839 559.791 66.7857C559.864 65.7875 559.59 64.7846 559.012 63.9415C558.434 63.0984 557.587 62.4652 556.611 62.1457C555.588 61.9056 554.523 62.0202 553.597 62.4697C552.672 62.9193 551.943 63.6758 551.537 64.6097C551.13 65.5437 551.071 66.5968 551.37 67.5888C551.668 68.5808 552.305 69.4498 553.172 70.047L537.013 102.811H536.852C536.281 102.625 535.667 102.63 535.11 102.826C534.553 103.021 534.083 103.396 533.776 103.891L506.473 89.8793C506.526 89.779 506.568 89.673 506.598 89.5633C506.768 88.9861 506.779 88.3706 506.63 87.7789C506.481 87.1871 506.177 86.6398 505.749 86.1921L518.034 73.0232C518.353 73.2954 518.724 73.5016 519.123 73.629C519.837 73.8703 520.603 73.88 521.309 73.6567C522.015 73.4333 522.621 72.989 523.037 72.3902C523.453 71.7915 523.656 71.0707 523.616 70.336C523.576 69.6013 523.295 68.8923 522.816 68.3153C522.336 67.7383 521.683 67.3245 520.955 67.1359C520.227 66.9474 519.463 66.9942 518.778 67.2695C518.093 67.5447 517.524 68.0335 517.156 68.6625C516.787 69.2915 516.64 70.0268 516.736 70.7581L432.734 84.5591C432.604 84.0835 432.352 83.6451 432.004 83.2855C431.656 82.926 431.223 82.6572 430.746 82.5048C430 82.2786 429.202 82.3446 428.522 82.6889C427.842 83.0331 427.333 83.6285 427.103 84.3484C427.062 84.6361 427.071 84.9298 427.128 85.2176L355.364 90.6168C355.228 89.7734 354.854 88.9779 354.286 88.3211C353.717 87.6644 352.976 87.173 352.148 86.9032C351.573 86.7228 350.971 86.6547 350.375 86.7027C349.78 86.7508 349.204 86.914 348.679 87.1831C348.155 87.4522 347.692 87.8218 347.318 88.2709C346.945 88.72 346.667 89.2397 346.5 89.8003L296.445 77.2899C296.599 76.4247 296.45 75.5254 296.022 74.7372C295.594 73.9491 294.913 73.3183 294.087 72.9468C293.262 72.5752 292.341 72.4846 291.473 72.6897C290.606 72.8947 289.842 73.3834 289.307 74.0767L210.525 20.8744C210.711 20.5892 210.855 20.279 210.954 19.9526C211.257 18.9044 211.132 17.7696 210.604 16.787C210.075 15.8045 209.185 15.0509 208.121 14.6851C207.045 14.3422 205.887 14.4265 204.899 14.9196C203.91 15.4127 203.171 16.2748 202.841 17.3188C202.62 18.0537 202.611 18.8396 202.812 19.5915C203.013 20.3435 203.418 21.0329 203.983 21.5856L165.849 64.0947C165.423 63.7637 164.945 63.5054 164.434 63.3309C163.54 63.0495 162.586 63.0592 161.715 63.3585C160.844 63.6579 160.104 64.2306 159.608 64.9902L109.98 35.9396C110.091 35.7504 110.175 35.5466 110.23 35.3339C110.525 34.5005 110.518 33.5847 110.21 32.7388C109.902 31.8929 109.311 31.168 108.536 30.6846C107.761 30.2013 106.848 29.9887 105.95 30.0823C105.052 30.1758 104.223 30.5699 103.6 31.1988L78.519 8.9171C78.8621 8.49628 79.1206 8.01395 79.281 7.49486C79.4451 6.95531 79.4983 6.3862 79.4377 5.82007C79.3771 5.25394 79.2039 4.7019 78.9278 4.19553C78.6518 3.68917 78.2784 3.23841 77.8291 2.86905C77.3797 2.49968 76.8632 2.21896 76.309 2.04294C75.5276 1.79816 74.6986 1.76951 73.9144 1.96016C73.1302 2.15082 72.4214 2.5533 71.8672 3.12279L68.8437 0.489014H68.1204L71.5542 3.4125C71.2334 3.81074 70.9924 4.2662 70.8434 4.75573C70.5472 5.6593 70.576 6.64396 70.9251 7.54753L47.558 17.3188L35.5692 22.2967C35.3221 21.8273 34.9835 21.4085 34.5733 21.0647C34.163 20.721 33.6894 20.4593 33.1802 20.295L32.8006 20.137L35.4154 0.541689H34.9332L32.3184 20.137C31.3665 20.0264 30.4174 20.2709 29.6598 20.8218L12.861 0.541689L12.2449 0.541689L29.32 21.1115C28.8111 21.5534 28.4388 22.1272 28.2435 22.7708C28.0251 23.5073 28.0483 24.2992 28.3097 25.0358L10.7241 30.9881C10.4815 30.3841 10.1093 29.8355 9.63336 29.3806C9.15744 28.9257 8.58927 28.5755 7.96844 28.3544C7.30365 28.1979 6.61507 28.1979 5.95943 28.3544L0.710765 6.41501L0.779289 8.75907L5.47959 28.4334C4.84404 28.5962 4.2642 28.913 3.79218 29.3552L1.30977 26.9058L1.32979 27.5906L3.45319 29.6712C3.03447 30.1246 2.72147 30.6634 2.53507 31.2515C2.19852 32.3169 2.30774 33.482 2.83897 34.4932C3.37021 35.5044 4.28044 36.2798 5.37158 36.6507C6.30644 36.9509 7.30768 36.9377 8.21572 36.6131C9.12377 36.2885 9.88634 35.6713 10.3819 34.8598L45.7582 53.7966C45.7636 53.981 45.6075 54.139 45.5586 54.297C45.234 55.3448 45.3501 56.4884 45.8813 57.4763C46.4125 58.4642 47.3154 59.2153 48.3912 59.5646C49.4671 59.9139 50.6278 59.8326 51.6181 59.3387C52.6083 58.8447 53.347 57.9786 53.6716 56.9308C53.6803 56.7994 53.6764 56.6671 53.66 56.5357L102.482 64.4371C102.401 65.3859 102.658 66.3424 103.209 67.1441C103.76 67.9459 104.571 68.5435 105.504 68.8355C106.185 69.0485 106.904 69.0938 107.597 68.9672L114.946 94.9625C114.053 95.2227 113.297 95.7994 112.823 96.583C112.349 97.3666 112.189 98.3024 112.374 99.2127C112.56 100.123 113.077 100.944 113.828 101.52C114.579 102.096 115.511 102.387 116.448 102.337L120.233 131.941C119.842 132.007 119.48 132.176 119.186 132.432C118.891 132.687 118.675 133.018 118.561 133.389C118.441 133.933 118.537 134.508 118.83 134.997C119.123 135.486 119.59 135.852 120.138 136.023C120.501 136.141 120.886 136.164 121.255 136.09C121.624 136.016 121.964 135.847 122.242 135.602L161.678 172.475C161.286 172.928 160.991 173.456 160.813 174.028C160.489 175.136 160.625 176.336 161.192 177.371C161.758 178.406 162.71 179.192 163.841 179.559H164.269L151.28 270.346C150.538 270.274 149.798 270.426 149.16 270.782C148.521 271.138 148.014 271.68 147.707 272.336C147.399 272.993 147.307 273.732 147.44 274.454C147.574 275.176 147.929 275.847 148.456 276.377L112.978 315.357C112.567 315.025 112.095 314.775 111.59 314.619C111.058 314.446 110.499 314.377 109.945 314.416C109.391 314.455 108.854 314.601 108.364 314.845C107.873 315.09 107.44 315.428 107.087 315.842C106.735 316.255 106.471 316.734 106.31 317.253C106.149 317.772 106.095 318.32 106.151 318.865C106.206 319.411 106.37 319.943 106.633 320.432C106.896 320.922 107.253 321.358 107.684 321.716C108.114 322.074 108.61 322.348 109.143 322.521C110.12 322.827 111.168 322.771 112.085 322.363C111.383 322.782 110.862 323.434 110.612 324.206C110.356 325.062 110.456 325.992 110.891 326.795C111.325 327.599 112.059 328.211 112.934 328.499H113.55L111.826 373.063C110.903 373.061 110.011 373.338 109.269 373.856C108.527 374.374 107.972 375.109 107.678 375.96C107.693 376.021 107.695 376.084 107.683 376.144L22.1502 357.708C22.2135 357.147 22.0743 356.577 21.7569 356.096C21.4395 355.615 20.9638 355.253 20.4125 355.074C19.7743 354.874 19.0889 354.929 18.5055 355.225C17.9222 355.52 17.4881 356.034 17.2978 356.654C17.2553 356.933 17.2637 357.219 17.3225 357.497L11.2657 358.314L11.2796 358.788L17.4167 357.971C17.5366 358.376 17.7521 358.75 18.0454 359.061C18.3386 359.372 18.7012 359.613 19.103 359.762H19.5048L16.803 450.601H16.0797L13.6367 441.251L13.6991 443.385L15.6007 450.707C14.983 450.892 14.4168 451.206 13.94 451.628L14.1233 457.897C14.5658 458.335 15.1093 458.661 15.7046 458.845C16.4526 459.084 17.2468 459.119 18.0018 458.947C18.7567 458.776 19.4437 458.403 19.9888 457.87L43.7861 479.309C43.5592 479.572 43.3863 479.876 43.2765 480.205C43.1969 480.613 43.2092 481.035 43.3127 481.443L15.082 487.026L15.0958 487.5L43.4069 481.917C43.5956 482.502 43.9671 483.019 44.4679 483.392L27.935 508.86L16.2454 526.823L16.2708 527.692L44.5567 483.681L45.0726 483.918C45.7293 484.143 46.4381 484.143 47.0816 483.918L81.3217 548.288C80.3918 548.811 79.7105 549.67 79.4167 550.688C79.1229 551.706 79.2388 552.807 79.7407 553.766L17.7125 588.005L17.7279 588.532L79.9972 554.293C80.3043 554.74 80.6875 555.132 81.1293 555.452L36.5212 626.643L22.1117 649.609C21.8435 649.46 21.5617 649.336 21.2705 649.241C20.6946 649.063 20.0915 649 19.4972 649.056L19.7513 657.748C20.4501 657.814 21.1502 657.717 21.7945 657.465C22.4388 657.213 23.0092 656.814 23.4591 656.299L34.1904 664.2C33.9623 664.546 33.7754 664.917 33.6335 665.307L33.4943 666.044L20.0694 664.964L20.0832 665.438L33.5082 666.518C33.5097 667.444 33.8141 668.353 34.3765 669.112C34.9389 669.871 35.7294 670.439 36.6315 670.732C36.8958 670.81 37.1665 670.863 37.4397 670.89L37.1554 677.659C36.5041 677.65 35.8641 677.79 35.2862 678.069C34.7084 678.348 34.2088 678.758 33.8272 679.266L20.1698 670.232L20.1867 670.811L33.5227 679.845C33.3699 680.113 33.2436 680.395 33.1456 680.688C33.031 681.062 32.9792 681.453 32.9919 681.847L20.439 682.189L20.4528 682.663L33.0058 682.321C33.0977 683.128 33.4282 683.898 33.9564 684.535C34.4846 685.172 35.1871 685.647 35.9767 685.903C36.5093 686.08 37.0694 686.152 37.6244 686.115C38.1793 686.078 38.7181 685.933 39.2094 685.688C39.7008 685.443 40.1348 685.103 40.4863 684.687C40.8378 684.272 41.0998 683.79 41.257 683.269C41.5031 682.486 41.4995 681.642 41.2467 680.847C40.9939 680.052 40.5038 679.345 39.8412 678.818L57.2025 655.114C57.5432 655.331 57.9081 655.508 58.2893 655.641C59.0962 655.902 59.9556 655.931 60.7654 655.726C61.5752 655.521 62.3012 655.089 62.8569 654.483C63.4126 653.876 63.7746 653.121 63.8998 652.306C64.0251 651.491 63.9082 650.651 63.5632 649.886C63.2181 649.121 62.6595 648.464 61.9537 647.992C61.248 647.52 60.4249 647.254 59.5824 647.225C58.74 647.195 57.9138 647.405 57.2021 647.828C56.4904 648.25 55.9233 648.869 55.5683 649.609L51.6058 647.845C51.7778 647.251 51.7284 646.61 51.4665 646.037C51.2045 645.463 50.747 644.993 50.1749 644.71L82.4029 555.952C83.4915 556.274 84.6529 556.167 85.638 555.655C86.6232 555.143 87.3538 554.265 87.6732 553.211C87.9927 552.157 87.8757 551.01 87.3472 550.016C86.8187 549.022 85.9209 548.26 84.846 547.893C84.3733 547.754 83.8828 547.692 83.3941 547.709L75.0721 474.7C75.7753 474.588 76.4259 474.281 76.9482 473.815C77.4704 473.349 77.8428 472.742 78.022 472.066C78.1824 471.541 78.2164 470.982 78.1214 470.434C78.0264 469.886 77.805 469.363 77.4743 468.906L143.273 418.864C143.636 419.257 144.098 419.548 144.61 419.707C145.351 419.913 146.137 419.835 146.806 419.489C147.475 419.144 147.976 418.556 148.209 417.846C148.441 417.137 148.386 416.359 148.056 415.672C147.725 414.985 147.143 414.441 146.43 414.15L156.073 377.488C157.201 377.812 158.402 377.687 159.411 377.139C160.419 376.59 161.154 375.664 161.452 374.564C161.75 373.464 161.588 372.28 161.001 371.272C160.414 370.265 159.45 369.516 158.321 369.191L175.823 307.219C176.701 307.422 177.616 307.296 178.386 306.868C179.157 306.439 179.728 305.737 179.987 304.901C180.104 304.373 180.088 303.822 179.94 303.294L226.954 293.312C227.225 294.189 227.774 294.965 228.519 295.525C229.264 296.086 230.165 296.401 231.091 296.425C232.016 296.448 232.916 296.179 233.658 295.656C234.4 295.134 234.944 294.386 235.21 293.523C235.378 292.917 235.414 292.28 235.317 291.653C235.733 291.984 236.203 292.242 236.705 292.417C237.781 292.745 238.932 292.655 239.917 292.163C240.902 291.672 241.644 290.819 241.985 289.783C242.281 288.87 242.252 287.877 241.903 286.965L304.244 258.836C304.719 259.635 305.47 260.244 306.356 260.548C306.813 260.692 307.291 260.746 307.763 260.709C308.235 260.672 308.693 260.543 309.11 260.33C309.526 260.117 309.894 259.825 310.191 259.469C310.489 259.113 310.71 258.701 310.843 258.257C310.992 257.78 311.033 257.274 310.963 256.773C310.893 256.273 310.713 255.791 310.437 255.359L392.975 198.839C393.494 199.487 394.201 199.966 394.998 200.208C396.017 200.54 397.116 200.473 398.063 200.02C399.009 199.568 399.729 198.767 400.07 197.785L470.331 218.855C470.185 219.63 470.347 220.439 470.784 221.116C471.221 221.794 471.901 222.289 472.683 222.501C473.466 222.713 474.292 222.625 474.995 222.256C475.697 221.887 476.221 221.264 476.46 220.515C476.539 220.107 476.527 219.685 476.424 219.277L511.084 213.693C511.303 214.557 511.804 215.335 512.509 215.905C513.213 216.475 514.083 216.807 514.983 216.849C515.884 216.891 516.765 216.641 517.49 216.137C518.215 215.633 518.745 214.904 518.997 214.062C519.162 213.546 519.21 212.998 519.137 212.455L548.693 208.241C548.878 208.832 549.187 209.381 549.6 209.852C550.014 210.322 550.522 210.704 551.091 210.971C551.66 211.239 552.277 211.385 552.901 211.402C553.525 211.418 554.142 211.304 554.71 211.066C555.278 210.829 555.784 210.474 556.196 210.024C556.607 209.575 556.914 209.042 557.096 208.461C557.278 207.88 557.331 207.264 557.251 206.654C557.171 206.044 556.96 205.454 556.632 204.923L604.654 167.102C605.047 167.529 605.546 167.847 606.1 168.023C606.528 168.195 606.984 168.28 607.441 168.273C607.898 168.265 608.346 168.166 608.757 167.981C609.168 167.796 609.534 167.529 609.832 167.197C610.13 166.864 610.353 166.473 610.489 166.048C610.731 165.248 610.638 164.377 610.231 163.625L647.116 142.555C647.264 142.715 647.453 142.834 647.662 142.897C647.967 142.998 648.297 142.977 648.579 142.839C648.861 142.7 649.072 142.456 649.167 142.16C649.212 142.004 649.223 141.84 649.202 141.678C649.18 141.516 649.126 141.359 649.041 141.217C648.957 141.074 648.845 140.949 648.712 140.849C648.578 140.748 648.427 140.675 648.266 140.632ZM589.846 111.397L590.608 111.792C590.497 111.982 590.413 112.185 590.358 112.398C590.143 113.115 590.117 113.879 590.283 114.619C590.449 115.359 590.801 116.052 591.307 116.632C591.812 117.213 592.456 117.662 593.176 117.94C593.897 118.217 594.672 118.313 595.43 118.219L599.872 139.131C599.764 139.119 599.657 139.119 599.55 139.131L591.443 119.299L588.563 112.398C589.079 112.188 589.522 111.842 589.846 111.397ZM584.478 111.029C584.667 111.405 584.933 111.74 585.26 112.013C585.586 112.285 585.965 112.488 586.373 112.609C586.969 112.806 587.609 112.806 588.194 112.609L598.995 139.368C598.42 139.612 597.906 139.972 597.486 140.426C597.066 140.879 596.748 141.416 596.554 142.002C596.554 142.002 596.56 142.212 596.563 142.318L537.57 131.019C537.634 130.444 537.562 129.858 537.359 129.307L584.478 111.029ZM519.331 173.291L525.227 155.961L532.63 134.311C533.068 134.44 533.522 134.493 533.974 134.469L538.301 164.283L543.4 199.418C542.617 199.546 541.888 199.872 541.284 200.366L520.793 179.296C521.201 178.861 521.493 178.333 521.644 177.756C521.795 177.179 521.8 176.57 521.659 175.983C521.518 175.395 521.235 174.845 520.835 174.381C520.434 173.917 519.928 173.552 519.359 173.317L519.331 173.291ZM451.858 132.125L465.645 123.592C465.947 123.999 466.327 124.345 466.764 124.609C467.201 124.873 467.685 125.05 468.187 125.129C468.689 125.207 469.199 125.186 469.687 125.067C470.174 124.948 470.63 124.733 471.026 124.434L515.334 174.002C515.178 174.16 515.05 174.345 514.92 174.503L492.474 160.807L451.945 136.023C452.072 135.786 452.172 135.549 452.272 135.312C452.422 134.786 452.462 134.234 452.391 133.687C452.319 133.139 452.138 132.609 451.858 132.125ZM491.335 146.558L471.395 124.197C471.827 123.769 472.151 123.247 472.341 122.67C472.35 122.538 472.346 122.406 472.329 122.275L529.648 130.334C529.6 131.148 529.815 131.963 530.264 132.664C530.713 133.364 531.371 133.913 532.146 134.232L518.873 173.186C518.301 173.024 517.702 172.994 517.124 173.1C516.545 173.205 516.004 173.442 515.542 173.791L491.335 146.558ZM471.541 119.114L482.902 108.263L500.935 91.0119C501.313 91.3541 501.759 91.6146 502.243 91.7757C502.716 91.9234 503.213 91.9717 503.701 91.9172C504.189 91.8627 504.656 91.7068 505.073 91.4596L531.252 127.49C530.636 127.975 530.189 128.636 529.968 129.386C529.957 129.526 529.961 129.667 529.98 129.807L472.581 121.722C472.598 120.737 472.224 119.773 471.538 119.035L471.541 119.114ZM534.562 134.416C535.27 134.302 535.926 133.995 536.456 133.53C536.987 133.064 537.371 132.46 537.565 131.783C537.565 131.783 537.561 131.625 537.558 131.546L596.418 142.845C596.338 143.509 596.416 144.187 596.643 144.826C596.871 145.465 597.243 146.048 597.731 146.532L568.455 177.768L547.206 200.419C546.742 200.029 546.205 199.733 545.627 199.55C545.078 199.377 544.503 199.305 543.933 199.339L534.562 134.416ZM562.378 100.915L584.279 108.816C584.122 109.383 584.139 109.988 584.33 110.554H584.036L537.29 128.78C537.07 128.306 536.746 127.883 536.343 127.542L556.208 102.442C556.558 102.692 556.943 102.887 557.35 103.022C558.312 103.323 559.342 103.276 560.252 102.889C561.161 102.502 561.887 101.801 562.298 100.915H562.378ZM553.582 70.3367C553.719 70.4153 553.865 70.4772 554.016 70.5211C554.488 70.6662 554.978 70.7373 555.469 70.7318L557.818 95.1996C557.037 95.3012 556.307 95.6166 555.711 96.11C555.115 96.6035 554.676 97.2552 554.444 97.9914C554.264 98.6889 554.286 99.4273 554.506 100.125L538.561 104.444C538.337 103.898 537.937 103.435 537.424 103.127L553.582 70.3367ZM538.558 106.182C538.654 105.759 538.641 105.315 538.52 104.892L550.08 101.731L554.359 100.572C554.61 101.237 555.023 101.834 555.561 102.311L536.394 126.542L535.696 127.411C535.359 127.18 534.993 126.994 534.609 126.858H534.1L535.882 108.105C536.511 108.165 537.136 108.004 537.645 107.653C538.154 107.301 538.515 106.78 538.665 106.182H538.558ZM505.952 90.3798L533.685 104.418L533.691 104.628C533.588 104.959 533.553 105.308 533.588 105.655C533.624 106.003 533.729 106.342 533.897 106.653C534.066 106.964 534.294 107.241 534.57 107.467C534.846 107.694 535.163 107.866 535.503 107.973H535.798L534.015 126.726C533.216 126.68 532.428 126.873 531.755 127.279L505.361 91.2489C505.681 90.9869 505.945 90.6649 506.137 90.3008L505.952 90.3798ZM432.51 85.1122L516.642 71.2059C516.789 71.7587 517.081 72.2676 517.489 72.6808L505.203 85.8497C504.866 85.5684 504.477 85.3536 504.06 85.2176C503.62 85.0782 503.158 85.0249 502.702 85.0607C502.246 85.0965 501.804 85.2208 501.402 85.4263C501 85.6319 500.645 85.9147 500.359 86.2586C500.072 86.6024 499.859 87.0005 499.732 87.4299C499.656 87.6417 499.608 87.863 499.59 88.0884L437.663 85.4546L432.647 85.2176L432.51 85.1122ZM432.543 86.2447C432.55 86.0694 432.545 85.8934 432.527 85.718L499.582 88.7205C499.613 89.4811 499.908 90.2156 500.419 90.8012L471.18 118.693C470.78 118.313 470.293 118.032 469.763 117.876C469.117 117.67 468.431 117.634 467.777 117.773C467.122 117.912 466.521 118.22 466.036 118.667L432.084 87.0612C432.32 86.7851 432.493 86.4622 432.592 86.113L432.543 86.2447ZM431.722 87.509L451.879 106.288L465.648 119.114C465.34 119.498 465.108 119.935 464.962 120.405C464.686 121.376 464.813 122.426 465.315 123.328L451.529 131.862C451.001 131.123 450.239 130.575 449.367 130.308C448.565 130.071 447.717 130.071 446.929 130.308L430.992 88.1674C431.308 87.9636 431.574 87.6941 431.772 87.3773L431.722 87.509ZM428.9 88.0884C429.437 88.2458 430.006 88.2458 430.534 88.0884L434.398 98.4128L446.42 130.281C445.643 130.599 444.987 131.14 444.536 131.835L410.119 112.714L410.294 112.293C410.472 111.698 410.479 111.062 410.315 110.454C410.151 109.846 409.822 109.288 409.363 108.843L427.999 87.509C428.285 87.7171 428.608 87.8692 428.95 87.9567L428.9 88.0884ZM436.473 141.896L406.544 160.86C405.986 160.116 405.211 159.554 404.328 159.253L403.654 159.121L406.992 114.769C407.905 114.794 408.782 114.462 409.429 113.847L436.717 138.341C436.468 138.645 436.279 138.993 436.158 139.368C435.973 140.175 436.103 141.03 436.523 141.765L436.473 141.896ZM403.22 158.937C402.262 158.886 401.322 159.147 400.548 159.681C399.773 160.214 399.208 160.99 398.94 161.887L351.889 151.352C351.967 150.634 351.805 149.903 351.427 149.271L404.401 113.188C404.84 113.722 405.431 114.117 406.094 114.321H406.577L403.22 158.937ZM409.924 113.373C409.99 113.289 410.051 113.201 410.104 113.109L414.216 115.401L444.549 132.257C444.454 132.436 444.37 132.621 444.297 132.81C444.127 133.377 444.086 133.977 444.177 134.569C444.268 135.16 444.49 135.728 444.826 136.234L441.991 138.209C441.571 137.72 441.021 137.354 440.406 137.156C439.845 136.984 439.252 136.959 438.687 137.084C438.121 137.209 437.604 137.479 437.186 137.867L409.924 113.373ZM355.243 91.0645L427.008 85.6653C427.127 86.2377 427.413 86.7684 427.829 87.1929L420.052 96.0424L409.14 108.526C408.83 108.268 408.468 108.079 408.079 107.973C407.259 107.711 406.377 107.755 405.606 108.095C404.834 108.436 404.226 109.049 403.9 109.817L355.177 92.4604C355.253 91.9993 355.239 91.5257 355.136 91.0645H355.243ZM350.796 95.621C351.682 95.6316 352.544 95.3881 353.277 94.9203C354.011 94.4525 354.583 93.7807 354.924 92.9872L403.782 110.344C403.568 111.233 403.72 112.179 404.207 112.978L351.13 149.192C350.725 148.699 350.182 148.332 349.572 148.138H349.009L350.796 95.621ZM296.352 77.764L346.113 90.3008C345.926 91.376 346.148 92.4928 346.739 93.4394C347.329 94.3861 348.247 95.0967 349.317 95.4366C349.608 95.5314 349.906 95.6019 350.207 95.6473L349.821 108.105L348.52 147.875C347.952 147.877 347.401 148.032 346.926 148.323L295.093 79.5813C295.692 79.1185 296.131 78.4853 296.352 77.764ZM294.725 79.8447L330.145 126.831L346.531 148.586C346.077 148.965 345.748 149.468 345.583 150.035C345.4 150.66 345.419 151.332 345.639 151.957L310.18 165.916C310.027 165.628 309.817 165.371 309.562 165.163C309.307 164.954 309.013 164.799 308.698 164.705C308.404 164.653 308.104 164.653 307.814 164.705L300.739 123.355L293.401 80.3714C293.877 80.2861 294.327 80.1069 294.725 79.8447ZM292.922 80.4504L307.332 164.731C306.918 164.818 306.537 165.008 306.226 165.285C305.915 165.562 305.684 165.916 305.557 166.312C305.557 166.312 305.562 166.496 305.565 166.601L291.514 165.153L282.271 164.204C282.293 163.357 282.032 162.517 281.528 161.813C281.023 161.11 280.304 160.581 279.479 160.307H279.238L284.161 129.886L292.2 80.5031C292.443 80.5179 292.685 80.5001 292.922 80.4504ZM230.426 202.236L228.274 202.842C227.911 201.902 227.235 201.103 226.359 200.577L245.709 164.257H245.95L235.713 197.1C234.614 196.801 233.452 196.927 232.47 197.452C231.487 197.977 230.759 198.861 230.438 199.918C230.208 200.667 230.203 201.472 230.426 202.236ZM274.46 162.73C274.453 162.914 274.458 163.099 274.476 163.283L252.521 160.86H251.663C251.696 159.937 251.41 159.023 250.854 158.263C250.297 157.503 249.501 156.942 248.594 156.672C248.069 156.52 247.524 156.457 246.982 156.488L240.987 120.932C241.542 120.832 242.065 120.616 242.522 120.299L275.51 161.07C275.01 161.536 274.649 162.126 274.462 162.782L274.46 162.73ZM276.987 167.628L276.479 169.472L272.033 185.09C271.523 184.966 270.994 184.951 270.484 185.046C269.973 185.142 269.493 185.346 269.076 185.643L251.516 164.995L250.268 163.52C250.798 163.054 251.187 162.454 251.396 161.781C251.46 161.595 251.5 161.4 251.513 161.202L273.683 163.651H274.326C274.273 164.497 274.505 165.344 274.985 166.063C275.466 166.781 276.17 167.332 276.987 167.628ZM246.475 156.567C245.51 156.761 244.654 157.283 244.054 158.041L185.871 118.561C186.029 118.296 186.155 118.013 186.248 117.718C186.334 117.419 186.379 117.109 186.382 116.797L235.894 117.139C235.955 117.968 236.272 118.766 236.804 119.425C237.336 120.085 238.056 120.574 238.868 120.826C239.397 121.004 239.957 121.067 240.507 121.011L246.475 156.567ZM243.85 158.41C243.689 158.696 243.554 158.995 243.448 159.306C243.28 159.875 243.243 160.478 243.339 161.07L169.471 174.239C169.287 173.553 168.939 172.915 168.457 172.379C167.976 171.843 167.374 171.424 166.702 171.158L173.795 147.138L181.607 120.22C182.346 120.396 183.115 120.363 183.824 120.125C184.533 119.887 185.154 119.455 185.612 118.877L243.85 158.41ZM169.058 177.505L220.014 202.526C219.944 202.661 219.886 202.802 219.839 202.947C219.702 203.425 219.644 203.922 219.668 204.422L203.42 205.739L191.287 206.714C191.212 206.128 190.988 205.566 190.635 205.081C190.281 204.596 189.811 204.203 189.268 203.94C188.725 203.677 188.127 203.552 187.53 203.576C186.932 203.601 186.355 203.774 185.853 204.08L173.2 186.328L167.78 178.69C168.285 178.386 168.719 177.983 169.058 177.505ZM186.358 210.375L186.819 210.559C187.033 210.584 187.249 210.584 187.462 210.559L185.465 272.347C184.5 272.333 183.566 272.622 182.796 273.171C182.027 273.721 181.464 274.503 181.188 275.402C181.116 275.66 181.07 275.925 181.05 276.193L154.654 273.98C154.636 273.367 154.458 272.764 154.138 272.229C153.817 271.694 153.365 271.245 152.824 270.925L158.091 261.417L186.358 210.375ZM187.701 217.802L187.949 210.717C188.452 210.73 188.95 210.635 189.406 210.44C189.863 210.244 190.268 209.952 190.594 209.584L199.007 216.064C198.808 216.354 198.655 216.674 198.553 217.012C198.284 217.903 198.379 218.872 198.818 219.716C199.257 220.56 200.006 221.214 200.909 221.542L186.54 272.479H185.951L187.701 217.802ZM199.183 215.668L190.771 209.216C190.971 208.944 191.125 208.642 191.227 208.32C191.322 207.952 191.365 207.571 191.355 207.188L219.735 204.896C219.827 205.431 220.014 205.949 220.289 206.424L204.952 216.011C204.48 215.38 203.818 214.909 203.065 214.668C202.377 214.456 201.648 214.438 200.962 214.615C200.275 214.792 199.659 215.157 199.183 215.668ZM169.233 177.084C169.294 176.957 169.344 176.825 169.382 176.689C169.57 176.078 169.615 175.43 169.514 174.792L243.382 161.623C243.647 162.702 244.328 163.647 245.28 164.257L225.924 200.366C225.751 200.271 225.569 200.192 225.382 200.129C224.385 199.786 223.307 199.796 222.338 200.157C221.369 200.518 220.57 201.208 220.082 202.105L169.233 177.084ZM246.413 164.521C247.016 164.682 247.644 164.712 248.253 164.607C248.861 164.502 249.434 164.266 249.931 163.915L268.713 186.065C268.264 186.484 267.93 187.009 267.74 187.592C267.546 188.27 267.567 188.996 267.801 189.673L245.684 197.311L238.71 199.734C238.476 199.199 238.136 198.714 237.71 198.306C237.283 197.899 236.78 197.578 236.23 197.364L246.413 164.521ZM267.945 190.015C268.158 190.492 268.472 190.92 268.867 191.27C269.261 191.62 269.725 191.884 270.227 192.043C270.932 192.253 271.678 192.253 272.37 192.043L276.311 202.236C275.906 202.406 275.545 202.661 275.254 202.983C274.963 203.306 274.748 203.689 274.625 204.106C274.614 204.255 274.618 204.405 274.638 204.554L264.512 203.632L239.133 201.367C239.2 200.914 239.187 200.451 239.093 199.998L267.945 190.015ZM272.796 191.938C273.281 191.741 273.714 191.441 274.064 191.059C274.413 190.677 274.672 190.222 274.821 189.726L274.808 189.278L281.473 190.042C281.463 190.819 281.661 191.591 282.048 192.28C282.435 192.968 282.997 193.55 283.677 193.966L278.938 202.289L278.531 202.105C277.94 201.934 277.317 201.934 276.736 202.105L272.796 191.938ZM281.682 188.936C281.617 189.14 281.578 189.352 281.566 189.568L274.951 188.699C274.969 187.937 274.74 187.183 274.298 186.544C273.855 185.905 273.223 185.415 272.49 185.143L277.337 167.681C277.906 167.799 278.49 167.799 279.051 167.681L284.571 186.065C283.886 186.278 283.267 186.649 282.765 187.149C282.263 187.648 281.891 188.26 281.682 188.936ZM279.612 167.628C280.226 167.463 280.785 167.151 281.239 166.719C281.694 166.288 282.03 165.75 282.219 165.153C282.235 164.96 282.229 164.766 282.202 164.573L292.25 165.6L305.495 166.944C305.522 167.529 305.746 168.094 306.131 168.55L302.624 172.29L288.83 186.96C288.362 186.575 287.826 186.28 287.251 186.091C286.49 185.895 285.696 185.895 284.947 186.091L279.612 167.628ZM289.558 79.0282C290.036 79.5763 290.662 79.9792 291.36 80.1871H291.628L289.906 90.9065L278.532 159.99C277.586 159.896 276.645 160.129 275.872 160.649L274.149 158.516L242.862 120.01C243.429 119.529 243.846 118.9 244.068 118.192C244.239 117.598 244.27 116.97 244.16 116.354C244.049 115.739 243.799 115.152 243.428 114.637L289.558 79.0282ZM210.183 21.0851L289.05 74.4718C288.892 74.7369 288.766 75.0197 288.673 75.3146C288.503 75.8856 288.469 76.4911 288.575 77.0847C288.68 77.6782 288.922 78.244 289.282 78.7385L243.123 114.268C242.619 113.694 241.966 113.265 241.238 113.03C240.487 112.833 239.701 112.833 238.961 113.03L208.406 22.5864C209.149 22.326 209.795 21.86 210.268 21.2432L210.183 21.0851ZM204.123 21.7699C204.543 22.1024 205.024 22.3528 205.537 22.5074C206.305 22.7177 207.112 22.7177 207.867 22.5074L222.972 67.2816L238.508 113.109C237.768 113.375 237.129 113.851 236.673 114.479L167 69.5466C167.158 69.2814 167.284 68.9987 167.377 68.7038C167.596 67.9626 167.603 67.1708 167.396 66.4141C167.19 65.6574 166.779 64.9647 166.207 64.4107L204.123 21.7699ZM166.744 69.9417L236.392 114.953C236.257 115.213 236.148 115.487 236.068 115.769C235.949 116.088 235.895 116.428 235.91 116.77L186.371 116.428C186.312 115.65 186.015 114.901 185.519 114.28C185.022 113.659 184.35 113.196 183.591 112.951C182.826 112.715 182.012 112.715 181.26 112.951L165.016 71.3112C165.706 71.0113 166.301 70.5397 166.744 69.9417ZM159.833 69.9417C160.372 70.6625 161.131 71.1985 161.993 71.4693C162.871 71.7563 163.811 71.7563 164.672 71.4693L172.315 91.0119L180.993 112.978C180.497 113.186 180.054 113.495 179.691 113.885C179.329 114.275 179.056 114.737 178.89 115.243L120.836 99.44L119.997 99.1502C120.16 98.2503 119.98 97.3136 119.492 96.5165L159.833 69.9417ZM178.92 118.113L144.771 135.654C144.274 134.875 143.516 134.286 142.633 133.995C142.14 133.84 141.624 133.783 141.114 133.828C140.604 133.873 140.112 134.02 139.667 134.258L118.407 101.547C119.052 101.094 119.529 100.449 119.773 99.7033L156.682 109.685L178.607 115.664C178.442 116.476 178.552 117.326 178.919 118.087L178.92 118.113ZM73.817 10.2603C74.5835 10.5075 75.3983 10.5449 76.1726 10.3684C76.9468 10.1919 77.6508 9.80834 78.2075 9.25949L103.288 31.5412C102.977 31.9122 102.743 32.3417 102.602 32.8054C102.542 33.0306 102.495 33.2593 102.461 33.4902L60.5335 30.5141C60.5201 29.9185 60.3783 29.3289 60.1177 28.7842C59.8571 28.2394 59.4834 27.7518 59.0214 27.3535L72.6459 9.60188C73.0004 9.87941 73.3956 10.1016 73.817 10.2603ZM71.0736 8.04795C71.3585 8.55743 71.7249 9.02006 72.1583 9.41751L58.6387 27.0901C58.299 26.8409 57.9225 26.6453 57.5235 26.5107C56.9909 26.3337 56.4308 26.2616 55.8759 26.2985C55.3209 26.3354 54.7821 26.4806 54.2908 26.7257C53.7995 26.9707 53.3654 27.3108 53.0139 27.726C52.6624 28.1412 52.4004 28.6234 52.2432 29.1445L50.1912 28.5914L35.937 24.7988C36.0584 24.1232 35.9916 23.4227 35.7438 22.7708L71.0736 8.04795ZM46.0413 53.4016L10.6642 34.4384C10.7557 34.2703 10.8313 34.094 10.8899 33.9116C11.1317 33.0533 11.1049 32.1362 10.8129 31.2778L17.259 29.1182L28.4276 25.4045C28.6594 25.9294 29.0035 26.4016 29.4357 26.7882C29.868 27.1748 30.3782 27.4666 30.9307 27.6432C31.8551 27.9854 32.8656 27.9854 33.77 27.6432L43.4086 44.8945L47.3146 52.0583C46.7896 52.4028 46.3542 52.8621 46.0413 53.4016ZM47.8143 51.7423L35.4916 29.7239L34.1902 27.3535C34.9526 26.9158 35.529 26.2268 35.8207 25.4045L52.2303 29.6186C52.0447 30.5903 52.2284 31.6055 52.747 32.4735C53.2655 33.3415 54.0833 34.0027 55.0467 34.333L50.4394 51.7423C49.5809 51.4512 48.6558 51.4512 47.8143 51.7423ZM102.666 63.3836C102.657 63.515 102.661 63.6472 102.677 63.7786L53.8551 55.8773C53.9299 54.9709 53.6949 54.0571 53.1873 53.2799C52.6796 52.5027 51.928 51.9061 51.0509 51.5843L55.506 34.4647C56.2838 34.6466 57.0919 34.6068 57.8346 34.3501C58.5773 34.0933 59.2233 33.6304 59.6959 33.0161L62.4293 34.8861L103.071 62.5934C102.9 62.8735 102.764 63.1742 102.669 63.4889L102.666 63.3836ZM106.496 60.6444C105.89 60.6591 105.298 60.8061 104.764 61.0748C104.23 61.3436 103.767 61.7273 103.408 62.1984L69.5729 39.1792L59.953 32.6474C60.1388 32.3621 60.2829 32.052 60.3814 31.7256C60.4535 31.4858 60.5001 31.2387 60.5206 30.9881L90.8259 33.1478L102.475 33.9643C102.487 34.9505 102.878 35.9065 103.571 36.6396C104.263 37.3727 105.205 37.8285 106.207 37.915L106.496 60.6444ZM106.979 60.6444L106.743 37.915C107.356 37.8867 107.951 37.72 108.482 37.4277C109.012 37.1355 109.463 36.7255 109.801 36.2293L159.405 65.3852C159.277 65.6004 159.176 65.8302 159.103 66.07C159.034 66.3652 158.98 66.6641 158.942 66.9655L111.01 64.7531C110.981 63.8796 110.672 63.0294 110.127 62.3244C109.582 61.6194 108.829 61.0959 107.975 60.8288C107.633 60.7225 107.28 60.6605 106.925 60.6444H106.979ZM115.48 94.8835L108.157 68.8882C108.773 68.6803 109.328 68.3347 109.779 67.8781C110.23 67.4214 110.565 66.8659 110.759 66.2544C110.75 65.9647 110.876 65.675 110.921 65.3852L158.905 67.5449C158.932 68.2776 159.157 68.9956 159.556 69.6256L119.215 96.2004C118.724 95.5765 118.057 95.1082 117.3 94.8572C116.722 94.6941 116.117 94.6581 115.529 94.7518L115.48 94.8835ZM121.466 131.967C121.243 131.94 121.018 131.94 120.796 131.967L116.952 102.179C117.35 102.112 117.735 101.988 118.093 101.81L139.272 134.495C138.596 134.962 138.098 135.637 137.855 136.418C137.855 136.418 137.861 136.603 137.864 136.708L123.081 134.074C123.084 133.58 122.922 133.093 122.62 132.689C122.318 132.284 121.893 131.985 121.408 131.835L121.466 131.967ZM162.016 172.106L122.606 135.233C122.756 135.023 122.876 134.792 122.961 134.548L137.717 137.182C137.642 138.052 137.88 138.929 138.391 139.661C138.902 140.392 139.653 140.932 140.513 141.185C141.486 141.489 142.53 141.414 143.426 140.975L162.593 171.684C162.388 171.808 162.195 171.949 162.016 172.106ZM162.96 171.421L143.66 140.711C144.372 140.257 144.892 139.568 145.13 138.762C145.375 137.894 145.291 136.959 144.892 136.128L179.04 118.561C179.508 119.3 180.215 119.867 181.043 120.168L166.112 171.105C165.046 170.821 163.923 170.934 162.96 171.421ZM164.729 179.691C165.666 179.765 166.595 179.554 167.389 179.085L185.705 204.501C185.146 204.926 184.742 205.515 184.548 206.187C184.31 206.885 184.31 207.647 184.548 208.359C184.786 209.071 185.25 209.694 185.869 210.138L152.442 270.714L151.981 270.504H151.686L164.729 179.691ZM148.813 276.693C149.158 276.979 149.556 277.194 149.984 277.325C150.529 277.503 151.106 277.552 151.666 277.47C152.227 277.387 152.756 277.175 153.211 276.851L174.039 301.187C173.602 301.59 173.276 302.097 173.091 302.662C172.987 303.2 173.004 303.757 173.139 304.295L151.104 309.22L114.511 317.385C114.297 316.742 113.931 316.155 113.443 315.673L148.813 276.693ZM117.393 324.338L173.297 305.111C173.593 305.772 174.086 306.333 174.71 306.718L142.668 367.032L142.153 366.821C141.101 366.492 139.973 366.567 138.999 367.032L116.028 328.052C116.688 327.637 117.173 327.003 117.395 326.261C117.581 325.638 117.58 324.971 117.393 324.338ZM112.666 322.099C113.389 321.692 113.959 321.07 114.297 320.32C114.635 319.57 114.724 318.728 114.553 317.912L172.568 304.927L117.353 323.89C117.142 323.446 116.84 323.047 116.466 322.72C116.092 322.394 115.654 322.146 115.181 321.994C114.35 321.716 113.452 321.754 112.666 322.099ZM114.169 328.605C114.67 328.61 115.161 328.502 115.606 328.289L138.604 367.269C137.758 367.776 137.134 368.57 136.848 369.507C136.663 370.155 136.637 370.841 136.772 371.509L131.982 372.589L116.174 376.118C115.954 375.417 115.561 374.775 115.031 374.251C114.502 373.727 113.852 373.337 113.14 373.116L112.304 372.931L114.169 328.605ZM116.268 376.592L137.026 371.957C137.172 372.422 137.402 372.86 137.707 373.247L124.756 383.782C124.397 383.403 123.967 383.096 123.491 382.879C123.015 382.661 122.502 382.538 121.983 382.516C121.464 382.494 120.948 382.573 120.467 382.75C119.985 382.927 119.546 383.197 119.177 383.545L115.488 380.148C115.872 379.713 116.158 379.201 116.328 378.646C116.472 377.971 116.452 377.267 116.268 376.592ZM110.52 381.544C111.292 381.779 112.107 381.81 112.883 381.634C113.66 381.458 114.368 381.082 114.937 380.543L118.626 383.94C118.296 384.313 118.053 384.753 117.914 385.231C117.696 386.003 117.72 386.829 117.983 387.601L68.3934 406.591C68.3934 406.591 68.3857 406.327 68.1951 406.222L108.462 379.884C108.976 380.617 109.691 381.194 110.52 381.544ZM58.1053 443.174L59.7651 437.643C60.4361 437.828 61.1407 437.828 61.8009 437.643L62.8782 440.593L72.8568 467.642L72.328 467.879L59.4153 450.417C59.9967 449.957 60.4396 449.351 60.6989 448.66C60.9582 447.969 61.0247 447.217 60.8917 446.482C60.7586 445.746 60.4307 445.052 59.9413 444.471C59.4519 443.891 58.8185 443.443 58.1053 443.174ZM52.4242 447.678L20.8874 453.788C20.8222 453.6 20.7452 453.415 20.6569 453.235L57.246 435.773C57.7119 436.565 58.4407 437.18 59.3059 437.511L57.6453 443.016C56.9554 442.835 56.2355 442.823 55.55 442.983C54.8645 443.142 54.2349 443.467 53.7175 443.929C53.2001 444.391 52.8112 444.976 52.5855 445.63C52.3597 446.284 52.3043 446.988 52.4242 447.678ZM61.4735 430.11L64.1154 412.359C65.0766 412.466 66.0362 412.243 66.8316 411.73C67.627 411.216 68.2093 410.443 68.4796 409.541C68.5442 409.354 68.5835 409.159 68.5966 408.961L142.357 416.863L142.37 417.31L64.4741 432.876C64.258 432.257 63.8947 431.695 63.4149 431.236C62.9352 430.778 62.3532 430.437 61.7185 430.242L61.4735 430.11ZM21.8679 358.129L107.348 376.566C107.212 377.572 107.431 378.603 107.969 379.489L67.7014 405.827C67.168 405.129 66.432 404.604 65.5949 404.326C64.9451 404.127 64.2612 404.081 63.5987 404.191C62.9363 404.301 62.3141 404.563 61.7829 404.958L54.1924 396.372L21.467 359.078C21.6929 358.799 21.8567 358.476 21.9483 358.129H21.8679ZM19.488 451.734C19.0144 451.309 18.4571 450.986 17.8531 450.786L16.9905 450.601L19.6939 359.815C20.1628 359.782 20.6111 359.627 20.9933 359.367L61.5243 405.274C61.0108 405.733 60.6391 406.325 60.4493 406.986C60.2444 407.661 60.2213 408.381 60.3824 409.078C60.5436 409.774 60.8834 410.424 61.3692 410.963L21.4439 449.916L19.488 451.734ZM61.7274 411.305C62.1738 411.712 62.7045 412.018 63.2804 412.201H63.6286L61.0419 430.005C60.3629 429.923 59.679 430.017 59.0582 430.277C58.4373 430.536 57.901 430.953 57.5024 431.485C57.1037 432.018 56.8567 432.647 56.7856 433.312C56.7146 433.976 56.8221 434.652 57.0975 435.273L20.4571 452.814C20.3018 452.547 20.1146 452.3 19.8998 452.076L61.7274 411.305ZM46.5725 478.414C46.1019 478.302 45.614 478.304 45.1508 478.419C44.6876 478.534 44.2629 478.758 43.9131 479.072L20.1434 457.66C20.4866 457.249 20.7454 456.775 20.9062 456.264C21.0865 455.643 21.1222 454.986 21.0107 454.341L52.5444 448.125C52.7315 448.786 53.0823 449.394 53.5648 449.895C54.0472 450.397 54.6461 450.775 55.307 450.996L46.5725 478.414ZM55.6354 451.233C56.206 451.377 56.7974 451.401 57.3714 451.306C57.9454 451.211 58.4892 450.998 58.9676 450.68L68.45 463.507L71.8803 468.142C71.3209 468.593 70.9106 469.196 70.6989 469.88C70.5067 470.585 70.5286 471.335 70.7621 472.04L48.5726 479.942C48.2586 479.261 47.697 478.715 47.0011 478.414L55.6354 451.233ZM34.4805 664.042L23.7491 656.141C23.9929 655.795 24.1805 655.413 24.3053 655.009C24.5152 654.339 24.5404 653.621 24.3784 652.928L46.6258 647.924C46.8137 648.452 47.1646 648.912 47.6286 649.241L39.732 663.173C39.5247 663.063 39.3066 662.975 39.0815 662.91C38.2729 662.632 37.4061 662.592 36.5883 662.793C35.7705 662.994 35.0377 663.429 34.4805 664.042ZM56.9009 654.877L39.5128 678.581C39.2055 678.363 38.8659 678.194 38.5071 678.08C38.2518 678.003 37.99 677.95 37.7256 677.922L38.0099 671.154C38.944 671.171 39.8506 670.895 40.5968 670.364C41.3431 669.833 41.8895 669.076 42.156 668.204C42.3296 667.608 42.3671 666.979 42.2657 666.36C42.1642 665.741 41.9265 665.148 41.5691 664.622L56.2411 654.297C56.4434 654.509 56.6642 654.703 56.9009 654.877ZM51.3511 648.292L55.3127 650.031L55.3189 650.241C55.1391 650.845 55.0986 651.483 55.2003 652.112C55.302 652.74 55.5435 653.343 55.9073 653.876L52.2342 656.51L41.1014 664.2C40.8018 663.841 40.4388 663.537 40.0305 663.305L47.9532 649.346H48.2478C48.8204 649.541 49.4377 649.544 50.0005 649.353C50.5633 649.161 51.0389 648.788 51.3511 648.292ZM49.6598 644.5C48.9942 644.324 48.2928 644.404 47.6994 644.722C47.1061 645.04 46.6657 645.573 46.4686 646.212C46.396 646.585 46.4073 646.971 46.5017 647.344L36.1227 649.662L24.2796 652.296C23.9707 651.344 23.3412 650.517 22.4967 649.952L81.535 555.584H81.91L49.6598 644.5ZM82.752 547.735C82.38 547.762 82.019 547.861 81.689 548.025L47.5033 483.681C48.1143 483.332 48.5654 482.769 48.7696 482.101C48.9138 481.559 48.8969 480.984 48.7211 480.442L49.6219 480.1L70.8295 472.514C71.0513 472.992 71.3716 473.422 71.7695 473.776C72.1675 474.13 72.6343 474.4 73.1396 474.569C73.5428 474.684 73.9602 474.738 74.3764 474.727L82.752 547.735ZM77.0135 468.722C76.5535 468.222 75.9691 467.849 75.3212 467.642C74.6259 467.431 73.8879 467.431 73.205 467.642L62.2516 437.485C62.7853 437.277 63.2622 436.954 63.6483 436.54C64.0344 436.126 64.3202 435.63 64.4852 435.088C64.6007 434.516 64.5833 433.922 64.4344 433.35L142.52 417.837C142.621 418.101 142.745 418.357 142.89 418.601L77.0135 468.722ZM142.44 416.046C142.429 416.169 142.432 416.292 142.451 416.415L68.6907 408.514C68.7084 408.015 68.6302 407.514 68.4601 407.039L118.292 388.075C118.535 388.561 118.874 388.996 119.29 389.354C119.706 389.711 120.189 389.984 120.71 390.156C121.272 390.329 121.862 390.378 122.439 390.301C123.015 390.223 123.564 390.021 124.045 389.708L143.366 414.729C142.954 415.066 142.651 415.513 142.493 416.02L142.44 416.046ZM143.68 414.466L124.332 389.445C125.114 388.836 125.611 387.939 125.712 386.952C125.814 385.965 125.513 384.968 124.874 384.177L137.826 373.642C138.334 374.186 138.973 374.595 139.682 374.828C140.127 374.966 140.591 375.028 141.053 375.012L144.873 414.044C144.432 414.093 144.009 414.228 143.626 414.44L143.68 414.466ZM145.811 414.071H145.276L141.456 375.038C142.298 374.973 143.093 374.659 143.737 374.138C144.381 373.616 144.845 372.911 145.067 372.115C145.075 371.975 145.071 371.834 145.055 371.693L152.32 372.826C152.244 373.804 152.506 374.789 153.065 375.621C153.624 376.452 154.447 377.082 155.401 377.409L145.811 414.071ZM157.703 369.112C156.597 368.815 155.429 368.949 154.446 369.484C153.462 370.02 152.739 370.915 152.43 371.983C152.421 372.123 152.425 372.264 152.442 372.404L145.15 371.272C145.211 370.493 145.046 369.706 144.675 369.003C144.304 368.299 143.741 367.707 143.051 367.295L175.092 306.955H175.306L157.703 369.112ZM174.459 300.897L153.631 276.561C154.078 276.155 154.405 275.638 154.578 275.06C154.598 274.868 154.592 274.673 154.562 274.481L170.377 275.798L180.931 276.693C180.921 277.582 181.183 278.461 181.682 279.217C182.182 279.973 182.896 280.571 183.733 280.933L177.204 300.397C176.724 300.28 176.227 300.261 175.745 300.343C175.263 300.424 174.807 300.604 174.405 300.871L174.459 300.897ZM227.047 292.838L180.034 302.82C179.865 302.321 179.59 301.86 179.227 301.47C178.865 301.079 178.423 300.767 177.932 300.555L180.387 292.917L184.328 281.118C185.425 281.434 186.592 281.339 187.598 280.851C188.604 280.364 189.379 279.52 189.769 278.484L226.993 290.994C226.86 291.589 226.859 292.209 226.993 292.812L227.047 292.838ZM233.706 288.782C233.286 288.457 232.817 288.199 232.317 288.018C231.268 287.678 230.138 287.739 229.157 288.189C228.175 288.639 227.415 289.444 227.031 290.441L189.97 278.036L233.835 287.702C233.749 288.055 233.706 288.417 233.706 288.782ZM233.84 286.965C233.831 287.008 233.832 287.053 233.844 287.096L190.064 277.562C190.217 276.531 189.993 275.469 189.433 274.564C188.872 273.658 188.011 272.967 186.999 272.611L201.261 221.673C202.006 221.847 202.781 221.792 203.479 221.515L220.182 254.069L235.889 284.673C234.945 285.187 234.25 286.046 233.95 287.07L233.84 286.965ZM236.201 284.331L217.169 247.221L203.79 221.147C204.59 220.703 205.188 219.981 205.472 219.119C205.612 218.646 205.651 218.147 205.586 217.653C205.521 217.159 205.353 216.681 205.093 216.248L220.595 206.819C221.179 207.595 221.993 208.176 222.92 208.478C223.478 208.656 224.064 208.719 224.64 208.663L237.163 284.252C236.853 284.3 236.55 284.379 236.259 284.489L236.201 284.331ZM237.477 284.015L234.032 263.287L225.066 208.584C225.848 208.444 226.571 208.099 227.159 207.584C227.748 207.07 228.18 206.405 228.41 205.66C228.614 204.895 228.59 204.081 228.341 203.316L230.492 202.684C230.727 203.293 231.096 203.845 231.573 204.301C232.05 204.757 232.623 205.105 233.248 205.318C233.634 205.43 234.032 205.492 234.432 205.502L237.48 284.12L237.477 284.015ZM239.144 284.226C238.779 284.1 238.397 284.038 238.014 284.041L237.049 259.284L235.076 205.555C235.95 205.506 236.78 205.198 237.458 204.672C238.135 204.145 238.629 203.425 238.874 202.605C238.947 202.374 238.993 202.136 239.014 201.894L274.493 205.081C274.518 205.61 274.678 206.129 274.958 206.589C275.238 207.05 275.63 207.436 276.096 207.714L243.721 275.85L239.608 284.515L239.144 284.226ZM303.921 256.044C303.674 256.803 303.698 257.629 303.99 258.388L241.673 286.412C241.255 285.71 240.655 285.127 239.936 284.726L256.212 250.487L276.399 207.978H276.586C277.32 208.242 278.118 208.242 278.836 207.978L305.233 254.174C304.589 254.628 304.127 255.287 303.921 256.044ZM305.815 253.937L279.553 207.741C280.153 207.345 280.597 206.762 280.817 206.082C280.99 205.436 280.946 204.748 280.691 204.117C280.437 203.486 279.985 202.947 279.402 202.579L284.115 194.282L284.793 194.572C285.587 194.794 286.423 194.794 287.204 194.572L289.765 202.473L306.073 253.621L305.815 253.937ZM307.172 253.621C306.958 253.596 306.742 253.596 306.529 253.621L287.655 194.44C288.309 194.215 288.898 193.844 289.376 193.355C289.854 192.867 290.208 192.274 290.412 191.622C290.634 190.864 290.642 190.056 290.435 189.282C290.229 188.508 289.816 187.797 289.239 187.224L298.54 177.347L306.49 168.893C306.709 169.088 306.97 169.232 307.252 169.314C307.404 169.327 307.556 169.327 307.707 169.314L307.172 253.621ZM310.158 254.964C309.71 254.403 309.098 253.989 308.409 253.779L307.654 253.621L308.195 169.498C308.644 169.468 309.072 169.317 309.433 169.061C309.794 168.806 310.074 168.456 310.242 168.05L344.379 179.401L392.146 195.204C392.019 195.734 392.002 196.287 392.096 196.83C392.19 197.372 392.393 197.894 392.694 198.365L310.158 254.964ZM392.296 194.835L310.524 167.628C310.621 167.232 310.608 166.814 310.489 166.417L345.974 152.432C346.176 152.814 346.453 153.156 346.788 153.436C347.122 153.716 347.509 153.93 347.924 154.064C348.454 154.23 349.015 154.259 349.551 154.148C350.088 154.037 350.582 153.791 350.986 153.432L351.84 154.249L393.175 193.755C392.824 194.065 392.527 194.43 392.296 194.835ZM393.323 193.334L390.702 190.7L351.163 153.09C351.424 152.765 351.631 152.401 351.775 152.01L398.825 162.545C398.67 163.56 398.897 164.606 399.465 165.488C400.033 166.371 400.903 167.028 401.912 167.339L399.291 180.297L396.75 192.36C396.134 192.257 395.506 192.291 394.913 192.46C394.32 192.629 393.776 192.927 393.323 193.334ZM470.535 218.513L400.274 197.443C400.501 196.455 400.337 195.409 399.814 194.515C399.29 193.62 398.448 192.944 397.455 192.623L402.723 167.576C403.44 167.704 404.174 167.652 404.855 167.427C405.537 167.201 406.145 166.809 406.622 166.285L420.475 177.4L471.11 218.013C470.902 218.16 470.709 218.328 470.535 218.513ZM471.175 217.486L437.986 190.885L406.687 165.758C406.967 165.394 407.181 164.985 407.322 164.547C407.49 163.983 407.538 163.388 407.461 162.799C407.384 162.21 407.183 161.639 406.873 161.123L436.802 142.16C437.213 142.701 437.789 143.099 438.443 143.292C439.101 143.503 439.805 143.503 440.452 143.292L472.067 216.827C471.733 216.995 471.431 217.218 471.175 217.486ZM440.876 143.134C441.283 142.947 441.643 142.676 441.932 142.339C442.221 142.002 442.434 141.608 442.555 141.18C442.677 140.753 442.704 140.303 442.637 139.859C442.569 139.415 442.408 138.988 442.163 138.604L444.998 136.629C445.487 137.239 446.139 137.704 446.878 137.97C447.616 138.236 448.41 138.291 449.167 138.13L472.146 215.879L440.876 143.134ZM475.537 217.328C475.203 217.042 474.813 216.826 474.393 216.696C473.888 216.579 473.365 216.579 472.866 216.696L449.649 138.13C450.486 137.854 451.203 137.319 451.694 136.603L514.584 174.898C514.49 175.104 514.406 175.315 514.334 175.53C514.154 176.138 514.135 176.786 514.28 177.413C514.425 178.039 514.728 178.624 515.162 179.112L475.537 217.328ZM515.47 208.9C514.592 208.848 513.729 209.077 513.009 209.551C512.289 210.026 511.751 210.721 511.476 211.533C511.312 212.068 511.265 212.633 511.337 213.193L476.677 218.776C476.553 218.324 476.33 217.902 476.025 217.538L515.597 179.322C516.014 179.694 516.507 179.973 517.04 180.139H517.603L515.47 208.9ZM519.19 211.533C518.961 210.971 518.607 210.463 518.154 210.048C517.701 209.633 517.162 209.322 516.576 209.137C516.361 209.111 516.146 209.111 515.933 209.137L517.413 189.225L518.019 180.613C518.984 180.668 519.927 180.378 520.673 179.796L538.818 198.47L541.166 200.893C540.689 201.372 540.339 201.959 540.145 202.605C539.894 203.462 539.921 204.382 540.222 205.239L519.19 211.533ZM549.091 206.266C548.918 206.825 548.863 207.416 548.928 208.004L519.398 212.218C519.383 212.157 519.381 212.095 519.393 212.034L540.229 205.502C540.56 206.324 541.126 207.038 541.859 207.556C542.591 208.075 543.456 208.373 544.346 208.416C545.237 208.458 546.112 208.241 546.864 207.793C547.615 207.345 548.209 206.686 548.571 205.897L549.168 206.134L549.091 206.266ZM556.574 204.765C556.051 204.164 555.369 203.717 554.608 203.474C553.584 203.15 552.486 203.195 551.515 203.601C550.543 204.007 549.762 204.747 549.315 205.686L548.719 205.449C548.899 204.871 548.954 204.259 548.881 203.652C548.808 203.044 548.608 202.455 548.294 201.92L578.078 183.484L603.787 167.681L556.574 204.765ZM604.111 164.125C603.983 164.535 603.943 164.968 603.992 165.398C604.042 165.829 604.18 166.247 604.399 166.628L587.664 176.952L548.064 201.367C547.931 201.189 547.782 201.021 547.621 200.867L562.091 185.459L598.28 146.98C598.734 147.37 599.262 147.666 599.832 147.849C600.592 148.045 601.386 148.045 602.135 147.849L606.164 161.939C605.657 162.084 605.198 162.35 604.826 162.712C604.454 163.075 604.18 163.524 604.028 164.02L604.111 164.125ZM609.981 163.309C609.557 162.7 608.939 162.245 608.228 162.018C607.696 161.901 607.147 161.901 606.621 162.018L602.594 147.954C603.284 147.744 603.908 147.375 604.416 146.875C604.923 146.376 605.298 145.762 605.51 145.083C605.632 144.656 605.691 144.213 605.686 143.766L646.866 142.239L609.981 163.309Z" fill="url(#paint0_radial)" style="mix-blend-mode:overlay"/>
</g>
<defs>
<radialGradient id="paint0_radial" cx="0" cy="0" r="1" gradientUnits="userSpaceOnUse" gradientTransform="translate(178024 -5525.74) scale(239380 254631)">
<stop offset="0.1" stop-color="#00B0DA"/>
<stop offset="1" stop-color="#00B0DA" stop-opacity="0.22"/>
</radialGradient>
</defs>
</svg>
