<svg width="646" height="662" viewBox="0 0 646 662" fill="none" xmlns="http://www.w3.org/2000/svg">
<g opacity="0.65">
<path d="M410.517 660.543C410.597 660.403 410.648 660.25 410.669 660.093C410.69 659.935 410.679 659.776 410.638 659.625C410.597 659.473 410.526 659.332 410.429 659.211C410.333 659.089 410.213 658.988 410.076 658.914C410.027 658.893 409.974 658.884 409.92 658.887L416.795 618.283C417.398 618.336 418.01 618.266 418.593 618.077C419.177 617.888 419.72 617.583 420.191 617.181C420.661 616.78 421.049 616.289 421.331 615.739C421.613 615.19 421.783 614.592 421.831 613.983L443.183 613.883C443.208 614.656 443.43 615.403 443.826 616.054C444.223 616.705 444.782 617.238 445.45 617.602C446.401 618.119 447.519 618.264 448.594 618.008C449.669 617.753 450.627 617.116 451.289 616.216C451.951 615.316 452.272 614.215 452.19 613.12C452.109 612.025 451.632 611.01 450.848 610.266L451.384 609.627L451.689 609.844C452.372 610.187 453.167 610.257 453.917 610.04C454.667 609.822 455.319 609.334 455.743 608.669C456.168 608.005 456.335 607.213 456.212 606.45C456.088 605.687 455.683 605.007 455.076 604.544L467.262 584.734C468.205 585.227 469.315 585.321 470.354 584.997C471.392 584.673 472.276 583.955 472.814 583C473.049 582.606 473.203 582.171 473.268 581.721L497.728 584.402C497.643 585.415 497.902 586.416 498.463 587.24C499.024 588.064 499.854 588.663 500.816 588.938C501.778 589.213 502.816 589.148 503.759 588.754C504.702 588.359 505.494 587.659 506.006 586.768C506.449 585.816 506.553 584.75 506.301 583.752C506.05 582.754 505.457 581.887 504.625 581.299C503.794 580.711 502.774 580.439 501.743 580.529C500.711 580.62 499.73 581.067 498.969 581.794L470.177 559.309L470.209 559.151C470.508 558.629 470.628 558.028 470.549 557.443C470.471 556.857 470.2 556.321 469.778 555.92L489.05 532.037C489.137 532.11 489.233 532.172 489.334 532.224C489.865 532.508 490.465 532.644 491.075 532.618C491.684 532.593 492.282 532.407 492.807 532.079L503.202 546.786C502.871 547.042 502.593 547.364 502.388 547.729C502.006 548.378 501.841 549.127 501.916 549.863C501.991 550.599 502.303 551.283 502.804 551.812C503.306 552.341 503.97 552.687 504.698 552.797C505.425 552.908 506.177 552.777 506.839 552.425C507.502 552.072 508.04 551.517 508.372 550.843C508.705 550.168 508.814 549.411 508.684 548.684C508.554 547.958 508.191 547.301 507.65 546.812C507.109 546.324 506.419 546.03 505.684 545.975L509.257 460.922C509.75 460.891 510.23 460.734 510.653 460.467C511.076 460.199 511.427 459.83 511.673 459.393C512.046 458.709 512.144 457.915 511.945 457.179C511.747 456.443 511.267 455.823 510.609 455.452C510.336 455.353 510.046 455.302 509.753 455.3L519.063 383.937C519.917 383.976 520.772 383.772 521.53 383.348C522.289 382.925 522.921 382.3 523.354 381.544C523.647 381.018 523.836 380.442 523.91 379.849C523.984 379.256 523.942 378.659 523.785 378.091C523.628 377.522 523.36 376.994 522.997 376.537C522.633 376.08 522.181 375.702 521.666 375.425L544.096 328.961C544.912 329.288 545.823 329.325 546.681 329.066C547.54 328.807 548.296 328.268 548.828 327.535C549.36 326.803 549.636 325.919 549.611 325.028C549.587 324.137 549.264 323.291 548.694 322.625L616.808 256.312C617.05 256.552 617.324 256.756 617.624 256.919C618.588 257.429 619.725 257.537 620.794 257.22C621.864 256.902 622.783 256.184 623.357 255.217C623.912 254.233 624.065 253.082 623.783 252.014C623.501 250.946 622.808 250.047 621.852 249.511C621.178 249.146 620.41 248.977 619.633 249.021C618.856 249.065 618.099 249.321 617.443 249.762L583.578 203.779C583.989 203.429 584.339 203.013 584.614 202.549C585.071 201.731 585.256 200.794 585.14 199.881C585.024 198.967 584.614 198.126 583.971 197.485L622.509 154.804C622.672 154.951 622.854 155.075 623.051 155.172C623.807 155.631 624.705 155.81 625.596 155.68C626.487 155.55 627.317 155.119 627.948 154.459C628.579 153.799 628.972 152.948 629.063 152.05C629.154 151.152 628.937 150.259 628.448 149.522L655.366 129.497C655.708 129.919 656.128 130.27 656.603 130.533C657.098 130.803 657.644 130.971 658.211 131.027C658.778 131.082 659.353 131.025 659.905 130.858C660.457 130.691 660.975 130.417 661.428 130.052C661.881 129.687 662.261 129.238 662.546 128.732C662.944 128.016 663.141 127.211 663.114 126.404C663.087 125.597 662.837 124.822 662.392 124.163L665.585 121.738L665.733 121.03L662.172 123.798C661.847 123.403 661.45 123.074 661.001 122.829C660.177 122.355 659.207 122.183 658.251 122.341L653.437 97.4745L651.002 84.7238C651.512 84.5774 651.99 84.331 652.41 83.9993C652.83 83.6675 653.183 83.2571 653.447 82.7919L653.679 82.4524L672.333 88.9982L672.431 88.5261L653.777 81.9803C654.079 81.0708 654.033 80.0918 653.648 79.2379L676.921 66.9153L677.046 66.312L653.433 78.8463C653.104 78.2582 652.618 77.777 652.028 77.4548C651.351 77.0912 650.571 76.9528 649.796 77.0589L647.545 58.6303C648.186 58.5156 648.799 58.2627 649.341 57.8893C649.883 57.5158 650.342 57.0308 650.685 56.4679C650.973 55.8489 651.113 55.1747 651.093 54.5009L673.642 53.8244L671.333 53.4147L651.114 54.015C651.083 53.3596 650.891 52.7275 650.554 52.1754L653.457 50.2431L652.783 50.1234L650.314 51.7792C649.955 51.277 649.491 50.861 648.953 50.5588C647.979 50.0126 646.816 49.8826 645.717 50.197C644.619 50.5115 643.675 51.245 643.09 52.2378C642.606 53.0921 642.415 54.0751 642.548 55.0302C642.681 55.9853 643.131 56.8575 643.824 57.5077L618.088 88.2928C617.906 88.2605 617.783 88.0756 617.638 87.9955C616.679 87.4646 615.535 87.3456 614.46 87.6648C613.385 87.984 612.466 88.7152 611.905 89.6975C611.344 90.6798 611.188 91.8328 611.47 92.9029C611.752 93.9729 612.45 94.8723 613.41 95.4032C613.536 95.4385 613.667 95.4616 613.799 95.4722L596.132 141.667C595.22 141.395 594.231 141.452 593.334 141.828C592.437 142.204 591.687 142.876 591.211 143.73C590.864 144.354 590.673 145.049 590.656 145.753L563.71 147.661C563.637 146.734 563.226 145.876 562.555 145.253C561.884 144.629 561 144.282 560.071 144.279C559.143 144.275 558.233 144.614 557.517 145.233C556.8 145.851 556.325 146.704 556.184 147.631L526.429 145.316C526.444 144.92 526.351 144.531 526.161 144.191C525.972 143.851 525.691 143.572 525.351 143.384C524.842 143.156 524.26 143.134 523.722 143.321C523.184 143.508 522.73 143.891 522.451 144.393C522.263 144.724 522.162 145.097 522.159 145.473C522.156 145.849 522.252 146.217 522.436 146.538L478.313 177.65C477.949 177.174 477.491 176.778 476.967 176.487C475.949 175.945 474.746 175.834 473.617 176.178C472.489 176.522 471.526 177.294 470.936 178.327L470.849 178.746L384.602 147.562C384.824 146.851 384.825 146.096 384.607 145.398C384.388 144.7 383.96 144.094 383.38 143.659C382.8 143.225 382.095 142.983 381.361 142.968C380.627 142.952 379.898 143.162 379.272 143.571L348.323 100.906C348.731 100.571 349.072 100.16 349.327 99.6975C349.605 99.2111 349.786 98.6776 349.861 98.1277C349.935 97.5777 349.902 97.0219 349.762 96.4921C349.622 95.9623 349.379 95.4688 349.046 95.0398C348.714 94.6108 348.298 94.2547 347.822 93.9918C347.347 93.7289 346.822 93.5644 346.276 93.5076C345.731 93.4509 345.176 93.5031 344.644 93.6611C344.112 93.8192 343.612 94.08 343.173 94.4288C342.735 94.7776 342.366 95.2074 342.089 95.6938C341.59 96.5884 341.432 97.6257 341.645 98.6064C341.377 97.8345 340.844 97.1912 340.14 96.7892C339.354 96.3649 338.423 96.274 337.548 96.536C336.673 96.798 335.925 97.3919 335.464 98.1895L335.339 98.7927L292.057 88.0403C292.247 87.1375 292.157 86.2073 291.801 85.3755C291.444 84.5438 290.838 83.8507 290.064 83.3901C290.002 83.3923 289.94 83.3813 289.883 83.3579L325.331 3.36271C325.867 3.53868 326.454 3.51845 326.99 3.30551C327.525 3.09257 327.976 2.70037 328.264 2.19698C328.589 1.61278 328.675 0.930722 328.504 0.299354C328.333 -0.332015 327.918 -0.861558 327.35 -1.17397C327.086 -1.27226 326.804 -1.32213 326.52 -1.32127L326.952 -7.41745L326.485 -7.50031L326.036 -1.32546C325.616 -1.29035 325.206 -1.15532 324.841 -0.931538C324.477 -0.707761 324.168 -0.401676 323.94 -0.0386431L323.858 0.35476L235.468 -20.7672L235.615 -21.4754L245.266 -21.9656L243.165 -22.3384L235.609 -21.9658C235.553 -22.6082 235.361 -23.2266 235.044 -23.7792L228.87 -24.8748C228.351 -24.5307 227.921 -24.0649 227.62 -23.5194C227.234 -22.8356 227.038 -22.0652 227.052 -21.2911C227.067 -20.517 227.292 -19.7687 227.702 -19.1266L201.871 -0.187467C201.66 -0.462958 201.398 -0.694055 201.098 -0.868513C200.715 -1.02941 200.299 -1.10324 199.879 -1.08487L200.154 -29.8611L199.687 -29.944L199.395 -1.08905C198.784 -1.0234 198.203 -0.764637 197.736 -0.350211L176.162 -21.7178L160.953 -36.8166L160.097 -36.9686L197.434 -0.322167L197.097 0.134715C196.743 0.731959 196.599 1.42587 196.688 2.10172L126.7 22.5333C126.376 21.5164 125.675 20.6747 124.738 20.18C123.801 19.6853 122.699 19.5748 121.658 19.8711L100.751 -47.8247L100.232 -47.9168L121.09 20.015C120.59 20.2248 120.128 20.5203 119.725 20.8878L59.0954 -37.2681L39.5398 -56.0478C39.7407 -56.2799 39.9189 -56.5307 40.0719 -56.7963C40.3632 -57.324 40.5474 -57.9018 40.6132 -58.4951L32.0517 -60.0142C31.8451 -59.3433 31.7975 -58.6382 31.9129 -57.9561C32.0283 -57.2741 32.3034 -56.6344 32.7158 -56.0892L22.797 -47.1893C22.5049 -47.483 22.1796 -47.7415 21.8272 -47.9597L21.1334 -48.2459L24.9213 -61.1705L24.4544 -61.2534L20.6665 -48.3288C19.7596 -48.5156 18.8074 -48.4025 17.9501 -48.0062C17.0928 -47.6099 16.3759 -46.9514 15.9052 -46.1279C15.7751 -45.8849 15.6682 -45.6307 15.5861 -45.3687L9.01668 -47.0238C9.15817 -47.6596 9.15085 -48.3148 8.99528 -48.9373C8.83971 -49.5598 8.5401 -50.1323 8.12054 -50.6092L19.7435 -62.1437L19.1727 -62.2449L7.61519 -51.0252C7.38405 -51.2293 7.13341 -51.4104 6.86668 -51.5659C6.52393 -51.7541 6.15135 -51.8845 5.76329 -51.952L7.98139 -64.3122L7.51432 -64.3951L5.29634 -52.0349C4.48701 -52.1092 3.66588 -51.9421 2.93495 -51.5545C2.20402 -51.1669 1.59556 -50.5758 1.18503 -49.8546C0.903407 -49.3692 0.718763 -48.8355 0.642021 -48.2846C0.565279 -47.7337 0.597913 -47.1766 0.73793 -46.6458C0.877947 -46.1149 1.12262 -45.6207 1.45767 -45.1921C1.79272 -44.7635 2.21151 -44.4089 2.68971 -44.149C3.40599 -43.7489 4.23356 -43.5806 5.06307 -43.6665C5.89259 -43.7524 6.68512 -44.0883 7.33576 -44.6299L27.0129 -22.8101C26.731 -22.5206 26.4836 -22.1993 26.2761 -21.8531C25.8565 -21.1163 25.6528 -20.2807 25.689 -19.4461C25.7253 -18.6115 26.0002 -17.8129 26.4808 -17.1455C26.9615 -16.4781 27.6277 -15.9699 28.4001 -15.6816C29.1725 -15.3932 30.0185 -15.3368 30.8375 -15.5191C31.6565 -15.7014 32.4138 -16.1146 33.0194 -16.7096C33.625 -17.3046 34.0532 -18.0564 34.2531 -18.8752C34.453 -19.6941 34.4162 -20.5457 34.147 -21.3285C33.8778 -22.1113 33.3876 -22.7923 32.7348 -23.2905L35.2685 -26.8112C35.8149 -26.5221 36.4521 -26.4402 37.0671 -26.5799C37.6821 -26.7197 38.2351 -27.0721 38.6282 -27.5748L118.976 22.033C118.439 23.0334 118.308 24.1922 118.609 25.2609C118.91 26.3297 119.62 27.2234 120.587 27.7506C121.554 28.2778 122.701 28.3965 123.782 28.0813C124.863 27.7661 125.792 27.042 126.37 26.0643C126.602 25.6297 126.763 25.1621 126.846 24.6802L200.02 31.3821C199.987 32.0934 200.155 32.7928 200.506 33.399C200.856 34.0052 201.374 34.4931 201.999 34.806C202.481 35.07 203.021 35.2169 203.577 35.2354C204.133 35.2538 204.69 35.1434 205.205 34.9126L240.817 109.514C240.359 109.79 239.98 110.183 239.72 110.652C239.367 111.336 239.284 112.121 239.487 112.846C239.689 113.571 240.162 114.182 240.81 114.554C241.457 114.926 242.23 115.03 242.97 114.846C243.71 114.662 244.361 114.204 244.791 113.564L278.725 130.462C278.178 131.501 278.056 132.702 278.388 133.802C278.72 134.901 279.477 135.808 280.494 136.324C281.51 136.839 282.703 136.921 283.808 136.552C284.914 136.182 285.843 135.39 286.391 134.352L343.508 164.093C343.131 164.911 343.067 165.832 343.331 166.674C343.594 167.516 344.165 168.218 344.931 168.641C345.424 168.863 345.967 168.959 346.513 168.922L346.724 216.983C345.81 217.071 344.939 217.45 344.239 218.065C343.539 218.681 343.046 219.499 342.835 220.4C342.624 221.302 342.704 222.238 343.065 223.07C343.426 223.903 344.047 224.588 344.838 225.024C345.397 225.311 346.013 225.476 346.648 225.509C346.239 225.849 345.89 226.256 345.617 226.713C345.077 227.699 344.931 228.845 345.212 229.909C345.493 230.973 346.177 231.873 347.122 232.418C347.955 232.894 348.933 233.067 349.898 232.911L364.759 299.67C363.879 299.972 363.13 300.584 362.653 301.39C362.419 301.808 362.269 302.264 362.209 302.735C362.15 303.205 362.183 303.679 362.306 304.13C362.43 304.581 362.642 305.001 362.929 305.364C363.217 305.728 363.575 306.029 363.984 306.249C364.42 306.492 364.908 306.635 365.412 306.668C365.916 306.701 366.424 306.623 366.903 306.441L405.454 398.75C404.713 399.125 404.101 399.72 403.702 400.451C403.169 401.382 403.012 402.472 403.262 403.491C403.512 404.509 404.151 405.377 405.042 405.911L370.121 470.417C369.393 470.117 368.568 470.111 367.816 470.401C367.063 470.691 366.44 471.256 366.073 471.979C365.707 472.702 365.625 473.529 365.843 474.292C366.062 475.054 366.565 475.694 367.25 476.081C367.633 476.241 368.049 476.315 368.469 476.297L366.887 511.368C365.996 511.407 365.133 511.739 364.431 512.313C363.729 512.887 363.228 513.671 363.003 514.544C362.779 515.417 362.845 516.331 363.191 517.143C363.536 517.956 364.143 518.623 364.916 519.04C365.387 519.308 365.914 519.466 366.461 519.505L364.575 549.301C363.959 549.361 363.358 549.552 362.813 549.861C362.268 550.17 361.791 550.59 361.414 551.093C361.037 551.596 360.767 552.17 360.625 552.777C360.482 553.385 360.468 554.012 360.585 554.616C360.702 555.221 360.947 555.789 361.303 556.283C361.659 556.777 362.118 557.186 362.65 557.483C363.182 557.779 363.775 557.956 364.388 558.002C365.002 558.048 365.623 557.961 366.209 557.749L393.472 612.459C392.974 612.757 392.56 613.181 392.275 613.688C392.02 614.071 391.844 614.501 391.758 614.95C391.673 615.398 391.679 615.857 391.776 616.297C391.874 616.737 392.061 617.15 392.326 617.509C392.591 617.869 392.928 618.167 393.317 618.387C394.051 618.786 394.923 618.873 395.742 618.626L408.869 659.026C408.682 659.139 408.527 659.299 408.423 659.491C408.262 659.769 408.216 660.096 408.294 660.401C408.372 660.705 408.567 660.962 408.838 661.115C408.982 661.19 409.14 661.235 409.303 661.247C409.466 661.258 409.63 661.237 409.787 661.184C409.944 661.13 410.089 661.046 410.215 660.936C410.34 660.826 410.443 660.692 410.517 660.543ZM451.024 609.291L450.482 609.956C450.319 609.809 450.137 609.686 449.94 609.588C449.282 609.232 448.539 609.051 447.78 609.063C447.022 609.075 446.272 609.279 445.601 609.656C444.93 610.033 444.359 610.571 443.941 611.221C443.523 611.87 443.271 612.609 443.209 613.37L421.831 613.466C421.864 613.363 421.886 613.258 421.896 613.151L442.963 609.248L450.305 607.831C450.406 608.379 450.654 608.883 451.024 609.291ZM452.477 604.11C452.07 604.218 451.687 604.411 451.354 604.675C451.021 604.939 450.745 605.269 450.544 605.644C450.23 606.188 450.1 606.814 450.174 607.427L421.777 612.559C421.655 611.946 421.407 611.37 421.048 610.867C420.69 610.363 420.229 609.943 419.695 609.633C419.695 609.633 419.487 609.596 419.383 609.578L442.445 554.116C442.995 554.296 443.584 554.345 444.164 554.258L452.477 604.11ZM404.767 527.661L420.535 536.958L440.227 548.61C440.012 549.012 439.867 549.447 439.799 549.894L409.727 548.066L374.29 545.912C374.325 545.12 374.153 544.34 373.792 543.648L398.59 527.871C398.932 528.359 399.39 528.752 399.925 529.017C400.459 529.282 401.054 529.411 401.658 529.392C402.262 529.374 402.858 529.209 403.393 528.911C403.929 528.613 404.39 528.192 404.735 527.683L404.767 527.661ZM458.796 469.971L464.347 485.205C463.886 485.418 463.47 485.721 463.123 486.095C462.775 486.468 462.504 486.906 462.325 487.382C462.146 487.857 462.063 488.361 462.08 488.863C462.098 489.365 462.216 489.855 462.427 490.303L404.883 523.603C404.76 523.418 404.606 523.255 404.478 523.096L422.452 503.905L454.962 469.264C455.168 469.436 455.38 469.582 455.591 469.729C456.076 469.982 456.608 470.134 457.159 470.175C457.709 470.217 458.266 470.147 458.796 469.971ZM436.635 505.687L462.584 490.712C462.915 491.222 463.361 491.646 463.887 491.949C464.014 491.985 464.145 492.008 464.277 492.018L444.727 546.499C443.94 546.287 443.098 546.332 442.321 546.629C441.544 546.926 440.873 547.459 440.403 548.152L404.963 527.234C405.238 526.706 405.388 526.126 405.403 525.538C405.418 524.951 405.296 524.373 405.047 523.849L436.635 505.687ZM467.531 491.889L475.845 505.22L489.068 526.384C488.656 526.685 488.31 527.069 488.054 527.51C487.813 527.943 487.664 528.42 487.619 528.909C487.573 529.398 487.63 529.887 487.788 530.345L447.186 548.648C446.835 547.947 446.28 547.375 445.59 547.006C445.455 546.966 445.316 546.942 445.175 546.932L464.767 492.377C465.727 492.594 466.747 492.424 467.609 491.903L467.531 491.889ZM439.731 550.48C439.699 551.197 439.866 551.902 440.214 552.516C440.561 553.13 441.075 553.628 441.698 553.957C441.698 553.957 441.854 553.984 441.932 553.998L418.897 609.329C418.263 609.116 417.584 609.054 416.912 609.147C416.24 609.239 415.592 609.485 415.02 609.864L390.391 574.847L372.536 549.435C373.012 549.06 373.411 548.594 373.708 548.066C373.99 547.563 374.176 547.015 374.259 546.45L439.731 550.48ZM466.874 584.529L454.683 604.366C454.16 604.096 453.565 603.99 452.971 604.062L453.031 603.773L444.694 554.298C445.203 554.178 445.683 553.948 446.099 553.622L466.633 578.178C466.318 578.469 466.048 578.806 465.834 579.178C465.343 580.058 465.179 581.077 465.374 582.046C465.568 583.014 466.106 583.869 466.89 584.451L466.874 584.529ZM498.602 582.137C498.497 582.255 498.407 582.385 498.333 582.524C498.095 582.957 497.926 583.422 497.832 583.904L473.397 581.227C473.457 580.442 473.296 579.663 472.934 578.979C472.573 578.295 472.024 577.732 471.35 577.356C470.704 577.038 469.977 576.909 469.249 576.983L468.263 560.492C468.844 560.384 469.378 560.087 469.784 559.647L498.602 582.137ZM466.562 560.136C466.957 560.316 467.394 560.394 467.833 560.361L468.576 572.322L468.84 576.747C468.139 576.858 467.47 577.141 466.894 577.571L447.068 553.876L446.359 553.016C446.654 552.733 446.91 552.412 447.122 552.064L447.225 551.565L465.223 557.124C465.037 557.729 465.067 558.373 465.308 558.943C465.549 559.513 465.985 559.972 466.54 560.241L466.562 560.136ZM488.666 531.425L469.281 555.723L469.073 555.686C468.771 555.518 468.436 555.413 468.089 555.377C467.741 555.341 467.388 555.375 467.049 555.477C466.71 555.578 466.393 555.746 466.115 555.97C465.837 556.194 465.604 556.469 465.429 556.78L465.37 557.069L447.372 551.51C447.579 550.736 447.55 549.925 447.29 549.184L487.935 530.67C488.127 531.037 488.388 531.36 488.706 531.623L488.666 531.425ZM508.762 460.59L505.265 545.792C504.694 545.823 504.136 546.006 503.648 546.321L493.254 531.614C493.598 531.341 493.887 531.004 494.105 530.623C494.331 530.22 494.477 529.779 494.535 529.326C494.593 528.872 494.561 528.414 494.441 527.978C494.322 527.543 494.117 527.138 493.839 526.787C493.56 526.437 493.214 526.147 492.819 525.935C492.627 525.818 492.42 525.726 492.203 525.663L507.378 465.565L508.631 460.702L508.762 460.59ZM507.646 460.392C507.816 460.434 507.99 460.465 508.165 460.484L491.586 525.526C490.835 525.402 490.056 525.542 489.379 525.923L468.017 491.622C468.471 491.307 468.845 490.888 469.105 490.401C469.439 489.81 469.613 489.146 469.611 488.476C469.608 487.807 469.428 487.156 469.089 486.591L506.94 459.777C507.162 460.064 507.443 460.299 507.765 460.467L507.646 460.392ZM506.575 459.332L484.089 475.247L468.73 486.119C468.417 485.74 468.036 485.424 467.606 485.185C466.711 484.717 465.657 484.628 464.672 484.937L459.121 469.702C459.952 469.337 460.643 468.702 461.082 467.902C461.477 467.165 461.649 466.335 461.578 465.515L506.079 458.482C506.214 458.833 506.424 459.149 506.694 459.407L506.575 459.332ZM506.582 456.45C506.318 456.945 506.203 457.501 506.249 458.05L495.355 459.734L461.707 465.022C461.555 464.197 461.158 463.444 460.569 462.862L486.291 433.053L486.668 433.31C487.214 433.605 487.835 433.742 488.464 433.705C489.093 433.668 489.706 433.459 490.235 433.1L507.332 455.686C507.07 455.924 506.856 456.209 506.701 456.526L506.582 456.45ZM452.358 452.921L439.879 419.76C440.721 419.365 441.428 418.721 441.903 417.917L442.169 417.284L484.916 429.573C484.705 430.463 484.851 431.388 485.322 432.147L455.79 453.883C455.543 453.577 455.24 453.321 454.898 453.126C454.145 452.781 453.282 452.735 452.477 452.996L452.358 452.921ZM442.438 416.897C442.683 415.969 442.618 414.995 442.253 414.129C441.888 413.262 441.243 412.551 440.42 412.106L460.305 368.182C460.992 368.404 461.74 368.393 462.436 368.152L486.99 427.358C486.377 427.68 485.871 428.178 485.536 428.786L485.438 429.258L442.438 416.897ZM485.686 432.728C485.754 432.81 485.828 432.887 485.907 432.958L482.827 436.518L460.154 462.788C459.998 462.659 459.834 462.539 459.663 462.429C459.143 462.147 458.564 461.985 457.966 461.954C457.368 461.923 456.767 462.024 456.204 462.25L454.846 459.073C455.411 458.761 455.88 458.297 456.2 457.736C456.482 457.221 456.627 456.645 456.62 456.067C456.612 455.488 456.453 454.926 456.159 454.438L485.686 432.728ZM518.65 383.728L509.339 455.09C508.754 455.091 508.177 455.263 507.676 455.584L500.594 446.169L490.59 432.946C490.907 432.696 491.165 432.379 491.348 432.02C491.771 431.27 491.908 430.398 491.731 429.574C491.555 428.749 491.078 428.029 490.392 427.554L517.296 383.379C517.732 383.547 518.199 383.63 518.671 383.623L518.65 383.728ZM515.093 378.447C514.903 379.312 514.966 380.206 515.274 381.019C515.583 381.832 516.125 382.529 516.832 383.025L489.901 427.33C489.074 426.94 488.117 426.897 487.236 427.211L462.574 367.877C463.139 367.581 463.609 367.124 463.922 366.566L464.037 366.016L515.093 378.447ZM543.651 328.773L521.255 374.944C520.24 374.542 519.101 374.533 518.054 374.918C517.007 375.304 516.125 376.058 515.574 377.036C515.422 377.302 515.293 377.579 515.187 377.865L503.068 374.953L464.394 365.59C464.508 365.034 464.468 364.463 464.28 363.938L542.128 327.17C542.459 327.851 542.989 328.41 543.651 328.773ZM541.944 326.757L488.736 351.879L464.102 363.498C463.824 362.976 463.398 362.551 462.877 362.275C462.302 361.968 461.64 361.851 460.983 361.939L454.528 324.381C454.842 324.291 455.136 324.138 455.392 323.93C455.648 323.723 455.86 323.467 456.016 323.177C456.127 322.9 456.187 322.607 456.196 322.311L498.121 323.795L541.698 325.354C541.685 325.837 541.769 326.314 541.944 326.757ZM541.718 324.868L456.268 321.835C456.268 321.412 456.158 321 455.951 320.639C455.743 320.278 455.443 319.98 455.082 319.775C455.082 319.775 454.9 319.743 454.796 319.724L459.073 306.261L461.881 297.405C462.707 297.598 463.582 297.513 464.374 297.163C465.165 296.812 465.829 296.216 466.266 295.463L466.315 295.227L495.097 306.235L541.813 324.151C541.75 324.385 541.717 324.627 541.718 324.868ZM435.19 238.907L435.034 236.677C436.029 236.513 436.948 236.014 437.642 235.263L469.266 261.596L469.217 261.832L439.143 245.129C439.66 244.114 439.773 242.951 439.458 241.882C439.144 240.812 438.427 239.92 437.457 239.391C436.77 239.013 435.983 238.845 435.19 238.907ZM464.914 290.057C464.735 290.012 464.553 289.98 464.369 289.96L471.207 268.956L471.382 268.117C472.278 268.336 473.232 268.243 474.089 267.852C474.946 267.462 475.657 266.796 476.106 265.964C476.362 265.481 476.534 264.959 476.615 264.423L512.647 265.785C512.632 266.349 512.736 266.905 512.953 267.417L466.325 291.422C465.971 290.838 465.466 290.364 464.862 290.048L464.914 290.057ZM459.604 291.535L457.902 290.662L443.514 283.133C443.74 282.658 443.862 282.143 443.873 281.624C443.883 281.105 443.781 280.593 443.574 280.125L467.363 267.132L469.061 266.21C469.409 266.823 469.918 267.326 470.534 267.667C470.703 267.769 470.886 267.847 471.077 267.9L464.169 289.109L464.039 289.738C463.222 289.514 462.345 289.569 461.544 289.893C460.742 290.218 460.061 290.795 459.604 291.535ZM476.64 263.911C476.646 262.926 476.309 261.981 475.689 261.24L526.178 212.303C526.406 212.512 526.657 212.693 526.927 212.844C527.202 212.989 527.496 213.096 527.802 213.163L517.396 261.57C516.572 261.461 515.726 261.61 514.972 261.996C514.218 262.383 513.593 262.989 513.181 263.732C512.899 264.214 512.724 264.749 512.667 265.299L476.64 263.911ZM475.369 260.966C475.123 260.75 474.857 260.557 474.574 260.39C474.051 260.11 473.468 259.95 472.869 259.924L475 184.922C475.709 184.88 476.404 184.67 477.027 184.307C477.65 183.945 478.182 183.441 478.58 182.837L500.655 194.668L525.421 207.791C525.099 208.479 524.974 209.239 525.063 209.982C525.152 210.724 525.449 211.419 525.921 211.986L475.369 260.966ZM471.886 183.852L437.024 228.655C436.906 228.559 436.779 228.473 436.647 228.397C436.208 228.166 435.732 228.008 435.238 227.93L437.253 211.754L438.767 199.676C439.356 199.722 439.951 199.616 440.498 199.369C441.045 199.122 441.525 198.742 441.893 198.264C442.261 197.785 442.505 197.225 442.603 196.635C442.701 196.046 442.648 195.445 442.451 194.891L462.405 186.113L470.986 182.36C471.181 182.917 471.487 183.424 471.886 183.852ZM436.185 194.106L435.911 194.519C435.842 194.724 435.798 194.935 435.78 195.149L375.689 180.626C375.899 179.684 375.807 178.71 375.425 177.845C375.044 176.98 374.393 176.27 373.568 175.817C373.33 175.694 373.081 175.595 372.822 175.521L380.358 150.127C380.962 150.234 381.588 150.183 382.177 149.978C382.766 149.773 383.298 149.421 383.721 148.956L391.959 156.047L436.185 194.106ZM428.64 193.909L435.526 195.593C435.411 196.084 435.403 196.59 435.501 197.077C435.6 197.564 435.803 198.02 436.097 198.414L428.042 205.333C427.798 205.079 427.516 204.864 427.206 204.695C426.388 204.251 425.42 204.147 424.505 204.405C423.589 204.663 422.796 205.263 422.292 206.081L375.342 181.652L375.462 181.075L428.64 193.909ZM428.393 205.586L436.422 198.662C436.647 198.913 436.912 199.125 437.206 199.291C437.547 199.459 437.912 199.578 438.289 199.646L434.76 227.899C434.217 227.88 433.673 227.958 433.152 228.131L426.884 211.165C427.598 210.831 428.194 210.279 428.584 209.59C428.93 208.959 429.096 208.249 429.063 207.541C429.029 206.833 428.797 206.155 428.393 205.586ZM472.263 184.11C472.375 184.195 472.494 184.271 472.62 184.336C473.179 184.645 473.804 184.821 474.45 184.851L472.318 259.853C471.209 259.893 470.144 260.368 469.354 261.176L437.936 234.881C438.064 234.73 438.179 234.568 438.279 234.397C438.818 233.491 439.027 232.434 438.871 231.411C438.714 230.389 438.201 229.467 437.423 228.807L472.263 184.11ZM468.865 262.232C468.584 262.789 468.427 263.398 468.406 264.015C468.385 264.632 468.5 265.242 468.743 265.8L443.235 279.684C442.916 279.159 442.471 278.725 441.938 278.42C441.314 278.092 440.599 277.965 439.888 278.057L436.909 254.849L435.955 247.527C436.526 247.407 437.07 247.173 437.556 246.838C438.042 246.504 438.458 246.076 438.78 245.581L468.865 262.232ZM439.524 278.128C439.014 278.24 438.531 278.461 438.108 278.775C437.685 279.09 437.332 279.491 437.074 279.95C436.725 280.597 436.574 281.328 436.638 282.048L425.857 283.834C425.773 283.402 425.597 282.997 425.34 282.647C425.083 282.296 424.752 282.008 424.369 281.802C424.225 281.761 424.078 281.735 423.928 281.724L426.89 271.998L434.27 247.609C434.7 247.767 435.156 247.848 435.619 247.849L439.524 278.128ZM436.655 282.486C436.749 283.002 436.955 283.486 437.258 283.906C437.561 284.326 437.953 284.672 438.409 284.919L438.85 284.997L436.746 291.368C435.988 291.2 435.192 291.237 434.438 291.475C433.685 291.714 433.001 292.146 432.456 292.728L425.271 286.395L425.534 286.034C425.821 285.49 425.948 284.88 425.899 284.276L436.655 282.486ZM437.787 291.797C437.6 291.692 437.4 291.611 437.192 291.556L439.388 285.256C440.13 285.428 440.915 285.357 441.63 285.054C442.346 284.751 442.955 284.231 443.37 283.569L459.481 291.866C459.25 292.399 459.131 292.971 459.132 293.545L440.01 295.21C439.941 294.496 439.703 293.814 439.316 293.221C438.93 292.628 438.406 292.14 437.787 291.797ZM459.07 294.105C459.107 294.74 459.299 295.35 459.629 295.883C459.959 296.416 460.417 296.854 460.964 297.16C461.149 297.215 461.34 297.249 461.534 297.262L458.485 306.891L454.476 319.586C453.897 319.493 453.298 319.597 452.773 319.882L449.825 315.688L438.267 299.197C438.739 298.818 439.137 298.353 439.439 297.828C439.786 297.123 439.948 296.346 439.908 295.573L459.07 294.105ZM543.795 321.864C543.161 322.22 542.639 322.752 542.294 323.393L542.239 323.655L532.094 319.788L466.768 294.601C467.052 293.693 467.016 292.725 466.664 291.863L469.103 290.61L513.168 267.808C513.524 268.461 514.054 268.997 514.702 269.359C515.249 269.647 515.858 269.806 516.483 269.822C517.108 269.839 517.734 269.714 518.313 269.456L543.795 321.864ZM616.671 255.934L548.359 322.294C548.132 322.085 547.881 321.904 547.611 321.753C547.086 321.47 546.5 321.314 545.898 321.297C545.295 321.279 544.692 321.401 544.135 321.653L518.736 269.231C519.401 268.855 519.954 268.304 520.332 267.638C520.677 266.942 520.837 266.173 520.795 265.409L615.563 253.888C615.667 254.669 615.992 255.397 616.499 255.985L616.671 255.934ZM617.234 249.861C616.823 250.205 616.48 250.625 616.224 251.096C615.862 251.805 615.698 252.595 615.75 253.377L568.84 259.059L520.81 264.949C520.701 264.17 520.364 263.448 519.842 262.874L578.006 203.796C578.234 204.005 578.485 204.187 578.755 204.337C579.436 204.702 580.21 204.87 580.993 204.822C581.776 204.774 582.538 204.512 583.196 204.065L617.234 249.861ZM577.672 203.465L519.435 262.503C519.208 262.317 518.962 262.155 518.702 262.019C518.414 261.838 518.092 261.716 517.754 261.66L528.165 213.227C528.939 213.328 529.733 213.189 530.441 212.829C531.15 212.47 531.741 211.906 532.135 211.212C532.522 210.511 532.687 209.714 532.609 208.93L576.682 201.495C576.836 202.232 577.176 202.91 577.672 203.465ZM579.078 196.699C578.262 197.081 577.583 197.714 577.142 198.504C576.683 199.304 576.491 200.225 576.597 201.126L555.909 204.634L532.637 208.663C532.534 208.135 532.322 207.638 532.014 207.204C531.706 206.77 531.308 206.409 530.847 206.143L558.128 152.518L558.582 151.755C559.43 152.097 560.384 152.112 561.264 151.796L579.078 196.699ZM528.03 205.589L517.802 168.586C518.667 168.258 519.397 167.636 519.861 166.83C520.114 166.379 520.275 165.885 520.334 165.377C520.393 164.869 520.35 164.357 520.207 163.873L556.559 149.71C556.871 150.434 557.406 151.033 558.086 151.422L540.806 185.53L530.492 205.781C529.731 205.454 528.876 205.389 528.056 205.594L528.03 205.589ZM655.007 124.62C654.609 125.32 654.407 126.111 654.422 126.905C654.437 127.699 654.67 128.466 655.094 129.123L628.176 149.147C627.877 148.766 627.503 148.451 627.078 148.218C626.87 148.114 626.655 148.021 626.436 147.941L637.878 107.495C638.464 107.603 639.07 107.584 639.657 107.44C640.243 107.295 640.796 107.029 641.28 106.657L655.89 123.608C655.546 123.898 655.248 124.24 655.007 124.62ZM657.731 122.384C657.174 122.56 656.647 122.824 656.169 123.168L641.616 106.336C641.929 106.054 642.197 105.725 642.41 105.362C642.692 104.877 642.876 104.343 642.953 103.792C643.03 103.241 642.997 102.684 642.857 102.153C642.717 101.622 642.473 101.128 642.138 100.7C641.803 100.271 641.384 99.9164 640.906 99.6564L641.864 97.7599L648.477 84.575C649.114 84.8313 649.813 84.9084 650.502 84.7983L657.731 122.384ZM618.417 88.6503L644.179 57.8699C644.325 57.9936 644.483 58.1035 644.649 58.198C645.441 58.6093 646.344 58.7696 647.244 58.6583L648.047 65.4089L649.411 77.0994C648.85 77.2196 648.318 77.4604 647.852 77.805C647.385 78.1496 646.996 78.5897 646.71 79.0948C646.187 79.9303 645.982 80.9196 646.133 81.8748L627.282 87.803L619.473 90.1702C619.243 89.586 618.882 89.0664 618.417 88.6503ZM619.681 90.7237L643.745 83.1372L646.331 82.3451C646.605 83.1806 647.162 83.885 647.908 84.338L640.444 99.5473C639.53 99.168 638.499 99.1414 637.544 99.4725C636.588 99.8037 635.775 100.47 635.255 101.346L619.147 93.294C619.607 92.5126 619.795 91.6068 619.681 90.7237ZM597.126 142.061C596.999 142.025 596.869 142.002 596.737 141.992L614.404 95.7971C615.276 96.0548 616.218 96.0106 617.083 95.6716C617.947 95.3326 618.684 94.7181 619.177 93.9248L635.033 101.769C634.697 102.493 634.571 103.293 634.671 104.072C634.772 104.852 635.094 105.578 635.599 106.166L633.212 108.462L597.817 142.618C597.578 142.393 597.311 142.2 597.023 142.042L597.126 142.061ZM599.029 146.368C599.138 145.772 599.114 145.163 598.96 144.585C598.805 144.007 598.524 143.476 598.136 143.028L627.556 114.583L635.908 106.493C636.149 106.732 636.424 106.937 636.723 107.1C636.943 107.219 637.176 107.315 637.417 107.386L629.138 136.618L625.969 147.858C625.001 147.669 623.986 147.857 623.127 148.386C622.268 148.915 621.631 149.745 621.342 150.708L599.029 146.368ZM598.931 146.84L621.233 151.233C621.136 151.839 621.178 152.456 621.357 153.034C621.535 153.613 621.845 154.138 622.262 154.57L583.626 197.207C583.441 197.038 583.237 196.892 583.017 196.772C582.742 196.644 582.46 196.531 582.173 196.432L594.088 149.951C594.949 150.101 595.844 149.972 596.646 149.582C597.447 149.191 598.113 148.56 598.548 147.779C598.721 147.466 598.854 147.133 598.942 146.788L598.931 146.84ZM563.678 148.2L590.62 146.318C590.698 146.963 590.924 147.576 591.279 148.111C591.634 148.646 592.11 149.087 592.669 149.401C592.955 149.451 593.213 149.633 593.487 149.736L581.613 196.278C580.89 196.156 580.141 196.229 579.443 196.492L561.629 151.589C562.34 151.235 562.934 150.677 563.334 149.988C563.611 149.454 563.77 148.869 563.797 148.275L563.678 148.2ZM526.153 146.518C526.225 146.305 526.271 146.085 526.289 145.862L556.236 148.157C556.22 148.561 556.264 148.963 556.365 149.349L520.055 163.438C519.736 162.681 519.176 162.056 518.461 161.66C518.461 161.66 518.279 161.627 518.175 161.609L523.761 147.671C524.245 147.774 524.754 147.715 525.211 147.501C525.668 147.288 526.048 146.932 526.293 146.488L526.153 146.518ZM478.605 178.056L522.723 146.97C522.898 147.16 523.1 147.323 523.321 147.457L517.741 161.369C516.905 161.118 515.997 161.173 515.177 161.524C514.357 161.876 513.676 162.501 513.253 163.292C512.757 164.183 512.619 165.221 512.867 166.187L478.9 178.706C478.821 178.481 478.722 178.263 478.605 178.056ZM479.083 179.12L513.077 166.469C513.376 167.259 513.946 167.908 514.686 168.305C515.486 168.722 516.419 168.83 517.313 168.608L527.568 205.616C526.749 205.923 526.05 206.5 525.587 207.249L478.752 182.27C479.246 181.284 479.364 180.162 479.083 179.12ZM470.626 179.169C470.363 180.072 470.381 181.025 470.678 181.898L442.068 194.66C441.766 194.027 441.272 193.511 440.653 193.186C440.018 192.81 439.272 192.655 438.527 192.743C437.781 192.832 437.076 193.158 436.516 193.675L384.005 148.626L384.305 148.217L384.365 147.928L470.626 179.169ZM378.889 143.857C378.54 144.136 378.248 144.482 378.032 144.874C377.748 145.372 377.582 145.926 377.549 146.492C377.515 147.058 377.615 147.619 377.84 148.13L349.776 163.573C349.471 163.062 349.041 162.64 348.525 162.345C348.02 162.134 347.471 162.036 346.917 162.06L346.576 139.483L346.025 101.994C346.698 101.916 347.347 101.676 347.919 101.297L378.889 143.857ZM338.631 103.402L346.085 162.048C345.378 162.203 344.728 162.572 344.225 163.105L291.689 119.465L292 119.004C292.537 118.041 292.692 116.92 292.436 115.872L335.273 101.31C335.544 102.041 336.067 102.644 336.748 103.013C337.32 103.322 337.974 103.457 338.631 103.402ZM341.785 99.2294C342.036 100.02 342.529 100.704 343.195 101.188C343.861 101.671 344.667 101.93 345.501 101.928L346.414 161.372L339.078 103.454C339.556 103.338 340.008 103.123 340.404 102.823C340.8 102.524 341.131 102.145 341.376 101.713C341.817 100.956 341.963 100.069 341.785 99.2294ZM335.11 99.3775C335.003 99.8666 335.009 100.37 335.127 100.849L292.284 115.437C291.96 114.506 291.308 113.734 290.449 113.262C289.853 112.95 289.187 112.785 288.505 112.781L288.422 107.872L288.182 91.6764C288.913 91.6032 289.621 91.3492 290.242 90.9373C290.863 90.5253 291.377 89.9683 291.739 89.3162L292.089 88.5354L335.11 99.3775ZM287.698 91.6722L288.015 112.939C287.529 112.987 287.054 113.124 286.613 113.343L278.932 98.5196C279.376 98.2455 279.764 97.8871 280.074 97.4653C280.384 97.0435 280.609 96.5668 280.736 96.0629C280.863 95.559 280.89 95.038 280.815 94.5303C280.74 94.0226 280.565 93.5384 280.299 93.1059L284.376 90.1853C284.724 90.6498 285.166 91.0338 285.675 91.3132C286.307 91.5917 287 91.7147 287.698 91.6722ZM284.02 85.0369C283.632 85.7448 283.436 86.537 283.45 87.3326C283.464 88.1283 283.689 88.8988 284.101 89.5655L280.024 92.4861C279.727 92.0871 279.345 91.7597 278.905 91.5262C278.193 91.1561 277.38 91.0118 276.57 91.1119L268.064 38.6964C268.064 38.6964 268.324 38.7425 268.466 38.5773L286.063 83.3599C285.241 83.7135 284.531 84.2962 284.02 85.0369ZM234.339 21.1824L239.416 23.9325C239.099 24.5519 238.956 25.2417 239.002 25.9257L235.895 26.3805L207.382 30.6488L207.257 30.0828L226.981 20.9918C227.312 21.6545 227.816 22.2114 228.44 22.6059C229.064 23.0004 229.786 23.2184 230.533 23.2377C231.281 23.2571 232.026 23.0771 232.695 22.7161C233.363 22.3551 233.93 21.8259 234.339 21.1824ZM231.085 14.704L231.517 -17.4164C231.714 -17.4419 231.911 -17.4797 232.105 -17.5296L241.76 21.8464C240.889 22.1414 240.139 22.7298 239.639 23.5096L234.587 20.7641C234.905 20.1255 235.062 19.423 235.046 18.7194C235.029 18.0158 234.839 17.3332 234.492 16.7327C234.144 16.1321 233.652 15.6325 233.057 15.2784C232.462 14.9244 231.785 14.727 231.085 14.704ZM246.444 27.1373L263.287 33.3347C262.987 34.254 263.01 35.2388 263.351 36.1221C263.692 37.0053 264.331 37.7327 265.159 38.1809C265.328 38.282 265.511 38.3602 265.702 38.4133L242.963 109.025L242.522 108.946L243.126 29.5127C243.776 29.4269 244.4 29.1856 244.947 28.8091C245.493 28.4327 245.945 27.9322 246.265 27.3503L246.444 27.1373ZM324.976 3.00056L289.539 82.9433C288.581 82.606 287.527 82.6108 286.55 82.9569L268.953 38.1743C269.745 37.7941 270.408 37.1802 270.851 36.4172C271.178 35.8214 271.362 35.1611 271.39 34.4902C271.417 33.8193 271.286 33.1566 271.008 32.5563L280.958 26.8708L324.129 2.41522C324.356 2.69296 324.639 2.91898 324.96 3.07924L324.976 3.00056ZM233.813 -18.3687C234.325 -18.746 234.755 -19.2259 235.073 -19.7766L235.429 -20.5836L323.768 0.529139C323.705 0.995061 323.765 1.46533 323.942 1.8925L270.751 32.2388C270.406 31.6427 269.902 31.1583 269.293 30.838C268.674 30.5001 267.974 30.331 267.259 30.3471C266.544 30.3631 265.839 30.5638 265.213 30.9297L235.194 -16.0841L233.813 -18.3687ZM264.804 31.2108C264.315 31.5652 263.908 32.0226 263.612 32.5493L263.541 32.8902L246.635 26.7361C246.853 26.0879 246.9 25.3993 246.772 24.7387C246.645 24.078 246.346 23.4681 245.906 22.9695C245.465 22.471 244.899 22.101 244.263 21.8963C243.627 21.6917 242.944 21.6594 242.28 21.8028L232.558 -17.6395C232.851 -17.7374 233.131 -17.8703 233.394 -18.0352L264.804 31.2108ZM202.181 2.72285C202.386 2.28474 202.484 1.80676 202.466 1.32993C202.447 0.853093 202.314 0.391618 202.077 -0.0149055L227.877 -18.9324C228.21 -18.5127 228.621 -18.163 229.089 -17.9016C229.66 -17.5987 230.296 -17.4301 230.95 -17.4082L230.622 14.7306C229.937 14.7796 229.27 14.9992 228.681 15.3696C228.092 15.74 227.6 16.2495 227.249 16.8516L202.181 2.72285ZM226.95 17.1249C226.694 17.6544 226.549 18.2284 226.526 18.8098C226.502 19.3911 226.6 19.9669 226.814 20.4999L212.327 27.1752L207.091 29.5909C206.763 28.9516 206.256 28.4271 205.629 28.0807C204.978 27.7491 204.239 27.6179 203.502 27.7032L200.279 4.37041C201.009 4.20146 201.658 3.76267 202.094 3.14248L226.95 17.1249ZM22.8927 -46.8732L32.8116 -55.7731C33.1006 -55.464 33.4363 -55.2027 33.8073 -54.9982C34.4206 -54.6564 35.118 -54.4857 35.8296 -54.5034L36.204 -31.7032C35.6491 -31.6266 35.1264 -31.3767 34.7107 -30.9892L22.6755 -41.5546C22.8254 -41.7353 22.9562 -41.9309 23.0657 -42.138C23.5018 -42.8732 23.7179 -43.7137 23.6872 -44.5553C23.6564 -45.3969 23.3802 -46.2028 22.8927 -46.8732ZM27.3063 -23.0572L7.63461 -44.9032C7.9106 -45.1597 8.14508 -45.4578 8.32912 -45.7861C8.45714 -46.0203 8.56223 -46.2658 8.64277 -46.5191L15.2123 -44.864C15.0048 -43.9531 15.0914 -43.0091 15.4594 -42.1705C15.8274 -41.3319 16.4575 -40.6428 17.2571 -40.2046C17.8047 -39.9135 18.4133 -39.7488 19.0399 -39.7222C19.6665 -39.6956 20.2958 -39.8077 20.8835 -40.0506L28.0078 -23.5854C27.7594 -23.4303 27.5245 -23.2536 27.3063 -23.0572ZM34.8819 -27.1517L32.3741 -23.6265L32.1666 -23.6633C31.6125 -23.9621 30.9953 -24.1316 30.3594 -24.1598C29.7234 -24.188 29.0844 -24.0742 28.4883 -23.8264L26.6567 -27.9585L21.3913 -40.4228C21.804 -40.6431 22.1751 -40.9368 22.4859 -41.2891L34.5416 -30.6929L34.4817 -30.4044C34.1739 -29.8835 34.046 -29.2796 34.1187 -28.6897C34.1913 -28.0998 34.4601 -27.5582 34.8819 -27.1517ZM38.9393 -28.0363C39.2466 -28.6522 39.3114 -29.3551 39.1204 -30.0008C38.9294 -30.6465 38.4971 -31.1861 37.9122 -31.5089C37.5617 -31.6559 37.1811 -31.7234 36.7966 -31.7069L36.6384 -42.3404L36.4686 -54.4716C37.4631 -54.5805 38.4014 -55.0285 39.1263 -55.7404L119.513 21.2582L119.437 21.6254L38.9393 -28.0363ZM126.95 24.0462C126.999 23.6763 126.976 23.3029 126.883 22.9465L196.834 2.56278C197.052 3.232 197.511 3.78826 198.124 4.12409C198.625 4.37544 199.192 4.47601 199.759 4.41409L199.911 5.36564L203.024 27.6728C202.51 27.7927 202.024 28.0188 201.597 28.3364C201.169 28.6541 200.81 29.0562 200.542 29.5168C200.347 29.888 200.21 30.2858 200.136 30.6956L126.95 24.0462ZM205.479 34.4989C206.062 34.1502 206.546 33.6538 206.881 33.0616C207.228 32.4237 207.379 31.7012 207.311 30.9897L239.065 26.3992C239.161 26.964 239.38 27.4966 239.707 27.9589C240.034 28.4212 240.461 28.8018 240.958 29.0736C241.494 29.303 242.079 29.4068 242.67 29.3774L241.976 108.986C241.697 109.031 241.422 109.1 241.153 109.193L205.479 34.4989ZM243.746 109.272C243.628 109.236 243.506 109.214 243.382 109.208L266.122 38.5964C266.606 38.7153 267.112 38.7404 267.613 38.6706L276.044 91.3175C275.518 91.4568 275.024 91.701 274.589 92.0353C274.154 92.3695 273.789 92.7868 273.515 93.2618C273.231 93.7772 273.063 94.3453 273.021 94.9256C272.98 95.5059 273.066 96.0839 273.275 96.6184L244.847 110.447C244.601 109.975 244.224 109.587 243.761 109.329L243.746 109.272ZM245.041 110.807L273.474 96.9529C273.911 97.8431 274.688 98.5114 275.634 98.8117C276.579 99.112 277.618 99.0199 278.521 98.5555L286.202 113.379C285.566 113.766 285.036 114.309 284.664 114.955C284.438 115.363 284.282 115.805 284.204 116.261L245.211 112.061C245.253 111.62 245.207 111.178 245.078 110.76L245.041 110.807ZM244.994 112.975L245.103 112.45L284.097 116.649C283.989 117.487 284.134 118.329 284.514 119.066C284.894 119.803 285.49 120.4 286.224 120.78C286.36 120.816 286.499 120.841 286.64 120.853L284.053 127.737C283.11 127.463 282.093 127.52 281.165 127.898C280.237 128.276 279.453 128.953 278.939 129.821L244.994 112.975ZM286.594 133.762C287.11 132.74 287.217 131.569 286.893 130.497C286.568 129.425 285.838 128.535 284.856 128.015C284.72 127.978 284.581 127.953 284.441 127.941L287.033 121.032C287.783 121.25 288.587 121.249 289.351 121.029C290.116 120.808 290.81 120.378 291.354 119.786L343.915 163.43L343.871 163.64L286.594 133.762ZM349.975 164.043L378.038 148.6C378.345 149.121 378.786 149.546 379.316 149.833C379.5 149.891 379.692 149.925 379.886 149.935L375.38 165.152L372.357 175.303C371.488 175.112 370.574 175.19 369.732 175.525C368.891 175.86 368.16 176.438 367.635 177.184L349.906 166.832C350.119 166.386 350.238 165.903 350.256 165.415C350.274 164.927 350.191 164.443 350.011 163.995L349.975 164.043ZM347.169 217.171L346.958 169.11C347.481 169.046 347.988 168.871 348.445 168.595C348.901 168.319 349.296 167.95 349.604 167.513L356.582 171.47L367.334 177.729C366.801 178.739 366.657 179.9 366.929 180.985C367.201 182.069 367.871 182.999 368.806 183.592L348.985 217.493C348.43 217.241 347.823 217.115 347.206 217.123L347.169 217.171ZM349.786 224.515C350.19 224.17 350.538 223.764 350.816 223.311C351.363 222.354 351.533 221.235 351.292 220.182C351.051 219.129 350.417 218.221 349.519 217.642L369.203 183.88L350.817 224.861C350.489 224.706 350.143 224.59 349.786 224.515ZM351.538 225.017C351.497 224.999 351.453 224.991 351.408 224.994L369.648 184.068C370.627 184.427 371.712 184.424 372.712 184.06C373.713 183.695 374.565 182.992 375.119 182.074L422.091 206.398C421.77 207.093 421.666 207.862 421.795 208.603L386.524 218.335L353.365 227.489C353.053 226.46 352.354 225.605 351.412 225.103L351.538 225.017ZM353.637 227.864L393.842 216.778L422.092 208.982C422.364 209.856 422.949 210.588 423.736 211.041C424.17 211.275 424.651 211.415 425.148 211.451C425.645 211.488 426.147 211.421 426.624 211.255L432.702 228.35C431.824 228.764 431.09 229.443 430.605 230.289C430.317 230.799 430.137 231.36 430.075 231.936L353.518 228.822C353.534 228.509 353.518 228.196 353.47 227.888L353.637 227.864ZM353.686 229.178L374.682 230.02L430.065 232.369C430.043 233.163 430.234 233.941 430.618 234.622C431.002 235.302 431.565 235.86 432.248 236.237C432.955 236.593 433.756 236.735 434.557 236.647L434.738 238.882C434.094 238.987 433.478 239.237 432.934 239.611C432.391 239.985 431.934 240.475 431.599 241.044C431.41 241.399 431.268 241.776 431.177 242.166L353.583 229.159L353.686 229.178ZM353.141 230.767C353.338 230.435 353.477 230.073 353.551 229.698L377.988 233.789L430.995 242.786C430.865 243.651 430.997 244.526 431.375 245.297C431.753 246.068 432.358 246.698 433.11 247.104C433.322 247.222 433.546 247.316 433.778 247.386L423.442 281.475C422.918 281.391 422.377 281.443 421.87 281.623C421.362 281.804 420.904 282.109 420.537 282.509L360.41 236.952L352.763 231.162L353.141 230.767ZM367.558 299.922C366.865 299.525 366.051 299.381 365.249 299.512L350.486 232.798C351.259 232.532 351.951 232.063 352.49 231.44L382.703 254.341L420.217 282.752L420.179 282.935C419.771 283.6 419.609 284.381 419.722 285.138L369.122 301.586C368.808 300.864 368.257 300.277 367.558 299.922ZM369.235 302.205L419.808 285.888C420.073 286.556 420.554 287.109 421.175 287.463C421.772 287.764 422.455 287.861 423.124 287.74C423.794 287.619 424.414 287.286 424.893 286.79L432.057 293.092L431.636 293.697C431.256 294.429 431.086 295.247 431.145 296.057L422.888 296.958L369.492 302.522L369.235 302.205ZM369.269 303.597C369.337 303.393 369.381 303.181 369.4 302.968L431.182 296.526C431.27 297.213 431.514 297.864 431.895 298.432C432.276 298.999 432.784 299.467 433.381 299.799C434.078 300.17 434.868 300.342 435.667 300.297C436.467 300.253 437.247 299.993 437.926 299.545L445.704 310.66L452.365 320.163C452.129 320.338 451.935 320.565 451.797 320.824C451.754 320.97 451.723 321.119 451.705 321.27L369.269 303.597ZM367.346 306.248C367.987 305.923 368.517 305.409 368.863 304.776L369.171 304.069L451.425 321.71C451.364 322.155 451.425 322.605 451.601 323.011C451.778 323.416 452.064 323.761 452.427 324.008L434.369 355.123L409.181 398.677C408.688 398.445 408.15 398.316 407.6 398.298C407.049 398.28 406.497 398.372 405.975 398.571L367.346 306.248ZM409.512 398.899L452.782 324.371C453.151 324.546 453.563 324.619 453.976 324.582L460.451 362.171C460.035 362.291 459.645 362.492 459.302 362.763C458.959 363.033 458.672 363.368 458.456 363.747C458.185 364.233 458.043 364.776 458.042 365.324C458.042 365.872 458.183 366.406 458.452 366.874L457.478 367.544L410.39 399.979C410.158 399.573 409.861 399.208 409.512 398.899ZM410.773 400.21L413.885 398.179L458.751 367.117C459.015 367.439 459.33 367.715 459.684 367.935L439.799 411.86C438.837 411.501 437.766 411.511 436.787 411.888C435.808 412.264 434.987 412.982 434.478 413.907L422.323 408.705L411.03 403.764C411.255 403.181 411.349 402.559 411.305 401.944C411.261 401.329 411.079 400.737 410.773 400.21ZM370.415 470.687L405.336 406.18C406.257 406.604 407.315 406.655 408.297 406.325C409.279 405.995 410.112 405.307 410.629 404.4L434.081 414.652C433.809 415.329 433.71 416.057 433.793 416.771C433.875 417.484 434.136 418.159 434.551 418.733L420.851 430.035L370.788 471.352C370.686 471.118 370.561 470.895 370.415 470.687ZM371.291 471.522L404.086 444.437L435.053 418.904C435.353 419.252 435.711 419.545 436.111 419.771C436.628 420.051 437.201 420.219 437.794 420.263C438.386 420.307 438.986 420.228 439.554 420.029L452.033 453.189C451.42 453.481 450.913 453.965 450.591 454.565C450.25 455.167 450.107 455.856 450.182 456.532L371.754 472.529C371.657 472.168 371.501 471.828 371.291 471.522ZM450.251 456.979C450.352 457.416 450.544 457.824 450.815 458.175C451.085 458.527 451.429 458.815 451.822 459.021C452.216 459.227 452.651 459.346 453.099 459.37C453.548 459.394 453.999 459.323 454.424 459.161L455.782 462.339C455.085 462.694 454.497 463.237 454.087 463.906C453.676 464.575 453.46 465.341 453.464 466.115L372.666 472.8L450.251 456.979ZM370.558 475.825C370.906 475.556 371.196 475.218 371.41 474.834C371.627 474.363 371.733 473.851 371.72 473.339L453.366 466.587C453.466 467.463 453.844 468.274 454.446 468.9L404.159 522.686C403.977 522.552 403.787 522.427 403.591 522.313C403.032 522.013 402.402 521.862 401.759 521.877C401.116 521.891 400.481 522.07 399.916 522.395L370.558 475.825ZM370.688 516.638C370.917 515.789 370.869 514.897 370.55 514.095C370.232 513.294 369.661 512.626 368.921 512.191C368.432 511.922 367.888 511.761 367.325 511.718L368.908 476.647C369.376 476.617 369.835 476.485 370.253 476.26L399.621 522.778C399.172 523.11 398.798 523.536 398.528 524.025L398.413 524.576L370.688 516.638ZM367.352 519.745C367.949 519.634 368.519 519.391 369.017 519.032C369.516 518.673 369.931 518.208 370.231 517.672C370.299 517.467 370.343 517.256 370.361 517.042L389.555 522.542L397.865 524.887C397.614 525.821 397.706 526.803 398.124 527.652L376.15 541.619L373.3 543.425C372.929 542.861 372.425 542.399 371.832 542.077C371.044 541.657 370.138 541.497 369.238 541.616L367.352 519.745ZM366.428 550.092C365.915 549.809 365.348 549.634 364.759 549.578L366.64 519.808C366.702 519.806 366.764 519.817 366.821 519.841L368.978 541.57C368.107 541.727 367.292 542.136 366.635 542.748C365.979 543.36 365.511 544.146 365.288 545.009C365.066 545.872 365.1 546.773 365.385 547.6C365.671 548.427 366.196 549.143 366.895 549.658L366.541 550.193L366.428 550.092ZM366.376 557.724C367.07 557.333 367.647 556.757 368.039 556.061C368.565 555.124 368.744 554.04 368.544 553.007C368.344 551.973 367.778 551.058 366.95 550.429L367.303 549.893C367.833 550.187 368.421 550.365 369.03 550.417C369.64 550.469 370.257 550.394 370.845 550.196L382.838 583.106L393.081 611.492L366.376 557.724ZM396.496 612.533C396.122 612.324 395.706 612.197 395.274 612.157C394.843 612.118 394.405 612.169 393.988 612.306L387.283 593.821L371.433 550.082C371.635 549.988 371.829 549.877 372.013 549.75L384.156 567.051L414.47 610.311C413.996 610.676 413.598 611.133 413.303 611.654C412.956 612.358 412.795 613.136 412.835 613.909L398.219 614.987C398.18 614.462 398.014 613.958 397.734 613.52C397.455 613.082 397.071 612.722 396.616 612.473L396.496 612.533ZM396.102 618.446C396.784 618.154 397.355 617.642 397.722 616.993C397.945 616.495 398.057 615.958 398.049 615.419L412.638 614.337C412.703 615.055 412.938 615.741 413.324 616.34C413.71 616.938 414.235 617.43 414.856 617.776C415.249 617.982 415.671 618.13 416.109 618.216L409.229 658.846L396.102 618.446Z" fill="url(#paint0_radial)" style="mix-blend-mode:overlay"/>
</g>
<defs>
<radialGradient id="paint0_radial" cx="0" cy="0" r="1" gradientUnits="userSpaceOnUse" gradientTransform="translate(-30119.8 175481) rotate(101.736) scale(239380 254631)">
<stop offset="0.1" stop-color="#00B0DA"/>
<stop offset="1" stop-color="#00B0DA" stop-opacity="0.22"/>
</radialGradient>
</defs>
</svg>
