<svg width="30" height="30" viewBox="0 0 30 30" fill="none" xmlns="http://www.w3.org/2000/svg">
<path fill-rule="evenodd" clip-rule="evenodd" d="M10 13.75C11.3261 13.75 12.5979 13.2232 13.5355 12.2855C14.4732 11.3479 15 10.0761 15 8.75C15 7.42392 14.4732 6.15215 13.5355 5.21447C12.5979 4.27678 11.3261 3.75 10 3.75C8.67392 3.75 7.40215 4.27678 6.46447 5.21447C5.52678 6.15215 5 7.42392 5 8.75C5 10.0761 5.52678 11.3479 6.46447 12.2855C7.40215 13.2232 8.67392 13.75 10 13.75ZM10 11.25C10.663 11.25 11.2989 10.9866 11.7678 10.5178C12.2366 10.0489 12.5 9.41304 12.5 8.75C12.5 8.08696 12.2366 7.45107 11.7678 6.98223C11.2989 6.51339 10.663 6.25 10 6.25C9.33696 6.25 8.70107 6.51339 8.23223 6.98223C7.76339 7.45107 7.5 8.08696 7.5 8.75C7.5 9.41304 7.76339 10.0489 8.23223 10.5178C8.70107 10.9866 9.33696 11.25 10 11.25Z" fill="#2B3645"/>
<path d="M13.75 17.5C14.0815 17.5 14.3995 17.6317 14.6339 17.8661C14.8683 18.1005 15 18.4185 15 18.75V26.25H17.5V18.75C17.5 17.7554 17.1049 16.8016 16.4017 16.0983C15.6984 15.3951 14.7446 15 13.75 15H6.25C5.25544 15 4.30161 15.3951 3.59835 16.0983C2.89509 16.8016 2.5 17.7554 2.5 18.75V26.25H5V18.75C5 18.4185 5.1317 18.1005 5.36612 17.8661C5.60054 17.6317 5.91848 17.5 6.25 17.5H13.75ZM22.5 8.75H25V11.25H27.5V13.75H25V16.25H22.5V13.75H20V11.25H22.5V8.75Z" fill="#2B3645"/>
</svg>
