<?xml version="1.0" encoding="utf-8"?>
<!-- Generator: Adobe Illustrator 26.0.3, SVG Export Plug-In . SVG Version: 6.00 Build 0)  -->
<svg version="1.1" id="Layer_1" xmlns="http://www.w3.org/2000/svg" xmlns:xlink="http://www.w3.org/1999/xlink" x="0px" y="0px"
	 viewBox="0 0 20 20" style="enable-background:new 0 0 20 20;" xml:space="preserve">
<style type="text/css">
	.st0{fill-rule:evenodd;clip-rule:evenodd;fill:#6B7075;}
	.st1{fill:#6B7075;}
</style>
<path class="st0" d="M6,9c1.1,0,2.1-0.4,2.8-1.2C9.6,7.1,10,6.1,10,5C10,4,9.6,3,8.8,2.2C8.1,1.5,7.1,1,6,1C5,1,3.9,1.5,3.2,2.2
	C2.5,3,2,4,2,5c0,1.1,0.4,2.1,1.2,2.8C3.9,8.6,5,9,6,9z M6,7c0.5,0,1-0.2,1.4-0.6C7.8,6.1,8,5.5,8,5c0-0.5-0.2-1-0.6-1.4
	C7.1,3.2,6.5,3,6,3C5.5,3,5,3.2,4.6,3.6C4.2,4,4,4.5,4,5c0,0.5,0.2,1,0.6,1.4C5,6.8,5.5,7,6,7z"/>
<path class="st1" d="M9,12c0.3,0,0.5,0.1,0.7,0.3C9.9,12.5,10,12.7,10,13v6h2v-6c0-0.8-0.3-1.6-0.9-2.1C10.6,10.3,9.8,10,9,10H3
	c-0.8,0-1.6,0.3-2.1,0.9C0.4,11.4,0,12.2,0,13v6h2v-6c0-0.3,0.1-0.5,0.3-0.7C2.5,12.1,2.8,12,3,12H9z M16,5h2v2h2v2h-2v2h-2V9h-2V7
	h2V5z"/>
</svg>
